<svg width="48" height="48" viewBox="0 0 48 48" fill="none" xmlns="http://www.w3.org/2000/svg">
<path d="M24.0001 48.0002C37.255 48.0002 48.0002 37.255 48.0002 24.0001C48.0002 10.7452 37.255 0 24.0001 0C10.7452 0 0 10.7452 0 24.0001C0 37.255 10.7452 48.0002 24.0001 48.0002Z" fill="white"/>
<path d="M23.9998 47.2433C36.8365 47.2433 47.2428 36.837 47.2428 24.0003C47.2428 11.1636 36.8365 0.757324 23.9998 0.757324C11.1631 0.757324 0.756836 11.1636 0.756836 24.0003C0.756836 36.837 11.1631 47.2433 23.9998 47.2433Z" fill="#E85A24"/>
<path d="M24.0001 46.1888C36.2546 46.1888 46.1888 36.2546 46.1888 24.0001C46.1888 11.7457 36.2546 1.81152 24.0001 1.81152C11.7457 1.81152 1.81152 11.7457 1.81152 24.0001C1.81152 36.2546 11.7457 46.1888 24.0001 46.1888Z" fill="#F8FBFD"/>
<path d="M42.3663 24.2357C42.2804 27.1733 41.7687 30.1516 40.2603 32.8905C39.5466 34.1861 38.6436 35.3224 37.4238 36.1846C35.7946 37.3361 33.9984 37.5361 32.1032 37.0874C31.7927 37.0138 31.674 37.0905 31.5267 37.348C30.6517 38.8793 29.5688 40.2307 28.0532 41.1821C26.6306 42.0754 25.0675 42.4719 23.4013 42.3327C21.2466 42.1526 19.4755 41.1757 18.0439 39.5662C17.417 38.8615 16.8771 38.095 16.42 37.2716C16.3292 37.1083 16.2414 37.0707 16.0555 37.1052C14.6192 37.3709 13.1904 37.4522 11.8017 36.8619C10.3547 36.2465 9.26674 35.2076 8.38603 33.9359C7.1774 32.1907 6.46427 30.2392 6.05814 28.17C5.76111 26.6563 5.58043 25.1262 5.64789 23.5817C5.7836 20.4798 6.39153 17.4994 8.03621 14.8066C8.74582 13.6447 9.62868 12.6424 10.7759 11.8876C12.3592 10.846 14.0819 10.7097 15.8799 11.1106C16.1237 11.1649 16.2139 11.1006 16.3228 10.9027C17.173 9.35911 18.2207 7.98016 19.6974 6.97509C21.1751 5.96943 22.8203 5.52165 24.5921 5.66615C26.7472 5.84214 28.5176 6.82277 29.9497 8.43166C30.6421 9.20952 31.2223 10.0648 31.7174 10.9786C31.7872 11.1072 31.8384 11.1909 32.0209 11.1454C35.0709 10.3841 37.4531 11.4436 39.3106 13.8649C40.7108 15.6905 41.4883 17.7925 41.9369 20.0266C42.2059 21.367 42.3447 22.7236 42.3663 24.2355V24.2357ZM15.7037 35.8846C15.4401 35.2995 15.2012 34.7209 14.9929 34.1304C14.1212 31.6598 13.6587 29.1086 13.4671 26.5007C13.2878 24.059 13.3688 21.627 13.709 19.2041C13.9542 17.4572 14.3381 15.7411 14.9256 14.0749C14.9886 13.8964 14.9829 13.8078 14.7761 13.7445C14.3556 13.6158 13.9348 13.5169 13.4931 13.5677C12.3672 13.6969 11.6545 14.3796 11.2 15.3538C10.1498 17.6054 9.61402 19.9917 9.42356 22.4595C9.28238 24.2901 9.36334 26.1139 9.6498 27.9279C9.97831 30.0092 10.5943 31.9916 11.6871 33.8082C11.9973 34.3238 12.3451 34.8101 12.7769 35.234C13.6108 36.0532 14.5983 36.1666 15.7041 35.8848L15.7037 35.8846ZM34.6251 23.9763C34.6086 25.5255 34.5208 27.0693 34.31 28.6058C34.0556 30.4605 33.6503 32.2785 33.0287 34.0457C32.9798 34.185 32.9671 34.2735 33.1374 34.3316C33.6499 34.5066 34.1714 34.589 34.7074 34.4882C35.7207 34.298 36.4007 33.6764 36.8399 32.7755C37.9109 30.579 38.3907 28.2318 38.5744 25.8141C38.6942 24.2373 38.6543 22.662 38.4627 21.0919C38.2486 19.3377 37.8534 17.629 37.1395 16.0057C36.6766 14.9535 36.1102 13.9672 35.2461 13.1819C34.5324 12.5333 33.7086 12.2369 32.7404 12.3855C32.5451 12.4154 32.4033 12.4394 32.5388 12.6964C32.6599 12.9257 32.7426 13.1758 32.8345 13.4197C34.1161 16.8223 34.591 20.3617 34.6252 23.9763H34.6251ZM24.4844 20.2217C24.8532 19.4218 25.1907 18.6515 25.56 17.8969C26.4693 16.0391 27.4906 14.2542 29.0158 12.8147C29.1214 12.715 29.1198 12.6365 29.0657 12.513C28.543 11.3213 27.9298 10.1825 27.1107 9.16513C26.5053 8.41309 25.8199 7.75412 24.9496 7.30438C24.3055 6.97157 23.6807 6.9702 23.0392 7.30731C22.5286 7.5754 22.0712 7.91075 21.6598 8.31063C20.4811 9.45649 19.6814 10.8526 19.0042 12.3309C18.9401 12.4709 18.9878 12.5345 19.0953 12.6137C20.6655 13.7701 21.8444 15.2677 22.8378 16.9249C23.4646 17.9705 23.9975 19.0641 24.4844 20.2217ZM23.7881 27.802C23.7104 27.8151 23.7151 27.8604 23.7032 27.8935C23.283 29.0579 22.8276 30.2081 22.2775 31.3182C21.478 32.9318 20.5517 34.4554 19.1464 35.6284C19.0312 35.7246 19.0683 35.8005 19.1153 35.9018C19.5973 36.9407 20.1567 37.934 20.8781 38.8275C21.5343 39.6401 22.2703 40.3624 23.2501 40.7829C23.6105 40.9375 23.9826 41.0222 24.3792 40.9076C25.1651 40.6806 25.7974 40.2107 26.3694 39.6511C27.4935 38.5514 28.2679 37.2172 28.9265 35.8058C29.0015 35.6449 28.9194 35.5842 28.8144 35.5039C28.2045 35.0379 27.6584 34.5045 27.1596 33.922C25.8481 32.3909 24.9222 30.6353 24.1698 28.7795C24.0376 28.4533 23.9136 28.1238 23.7883 27.8016L23.7881 27.802ZM17.6917 16.1115C16.3677 22.1278 16.4553 28.0038 18.2817 33.8731C18.355 33.7958 18.3861 33.7716 18.4062 33.7405C18.6069 33.4327 18.8188 33.1314 19.0028 32.814C20.3921 30.4191 21.3339 27.8305 22.2685 25.239C22.3045 25.1391 22.2949 25.0558 22.2591 24.9608C21.2916 22.3769 20.2111 19.8469 18.7105 17.5174C18.4129 17.0553 18.1004 16.6036 17.6915 16.1117L17.6917 16.1115ZM29.83 14.4811C29.746 14.591 29.707 14.6338 29.6771 14.6821C29.4489 15.0524 29.2061 15.4148 28.998 15.7963C27.7915 18.0096 26.911 20.3644 26.0086 22.7097C25.9578 22.8419 25.9896 22.9518 26.0278 23.0733C26.3467 24.0867 26.6942 25.0904 27.0855 26.0781C27.8672 28.0521 28.7563 29.9713 30.0252 31.6903C30.0899 31.7779 30.1284 31.8983 30.2851 31.9404C31.6065 26.1016 31.5428 20.3124 29.83 14.4811Z" fill="#D2D5DB"/>
<path d="M15.6826 35.8357C14.5807 36.1167 13.5968 36.0035 12.7655 35.1873C12.3354 34.7648 11.9887 34.2802 11.6797 33.7663C10.5906 31.956 9.97676 29.9807 9.64942 27.9064C9.36413 26.0987 9.28338 24.2811 9.42397 22.4569C9.61364 19.9978 10.1477 17.6197 11.1944 15.3759C11.6472 14.4052 12.3576 13.7249 13.4796 13.5961C13.92 13.5454 14.3392 13.644 14.7583 13.7722C14.9646 13.8354 14.9702 13.9236 14.9075 14.1015C14.3218 15.7619 13.9394 17.472 13.6949 19.2129C13.3559 21.6274 13.2751 24.0508 13.4538 26.4843C13.6447 29.083 14.1056 31.6254 14.9744 34.0876C15.182 34.6762 15.4202 35.2526 15.6828 35.8357H15.6826Z" fill="#F8FBFD"/>
<path d="M34.6263 23.9679C34.5919 20.3536 34.1171 16.8141 32.8355 13.4117C32.7436 13.1679 32.6609 12.9178 32.5399 12.6884C32.4044 12.4315 32.5461 12.4074 32.7415 12.3775C33.7096 12.2289 34.5334 12.5252 35.2471 13.174C36.1112 13.9592 36.6777 14.9457 37.1405 15.9977C37.8544 17.6211 38.2496 19.3297 38.4637 21.0839C38.6554 22.6543 38.6951 24.2293 38.5754 25.8062C38.3918 28.2238 37.9117 30.5711 36.8409 32.7676C36.4018 33.6684 35.7217 34.2902 34.7084 34.4803C34.1724 34.5808 33.6509 34.4985 33.1384 34.3237C32.9679 34.2654 32.9806 34.177 33.0297 34.0378C33.6513 32.2705 34.0567 30.4524 34.3111 28.5979C34.5219 27.0613 34.6097 25.5176 34.6261 23.9681L34.6263 23.9679Z" fill="#F8FBFD"/>
<path d="M24.4325 20.2268C23.9471 19.0733 23.4163 17.9836 22.7915 16.9416C21.8015 15.29 20.6267 13.7977 19.062 12.6454C18.9548 12.5666 18.9073 12.503 18.9713 12.3636C19.6459 10.8906 20.4431 9.49914 21.6177 8.35719C22.0275 7.95868 22.4835 7.6245 22.9923 7.3572C23.6317 7.02127 24.2543 7.02283 24.8961 7.35427C25.7635 7.80244 26.4465 8.45907 27.0498 9.20857C27.8659 10.2224 28.4772 11.3573 28.9981 12.5449C29.0521 12.668 29.0537 12.7461 28.9485 12.8454C27.4285 14.2799 26.4107 16.0585 25.5046 17.9101C25.1366 18.6621 24.8003 19.4298 24.4327 20.2268H24.4325Z" fill="#F8FBFD"/>
<path d="M23.7393 27.7812C23.8642 28.1022 23.9878 28.4305 24.1196 28.7555C24.8695 30.6051 25.7923 32.3544 27.099 33.8802C27.5961 34.4606 28.1403 34.9923 28.748 35.4567C28.8526 35.5366 28.9346 35.5971 28.8597 35.7574C28.2034 37.1639 27.4319 38.4934 26.3114 39.5894C25.7414 40.1471 25.1112 40.6152 24.3281 40.8414C23.9329 40.9556 23.5621 40.8711 23.2029 40.7171C22.2266 40.2982 21.4929 39.5782 20.839 38.7685C20.1201 37.8782 19.5628 36.8884 19.0823 35.853C19.0354 35.7521 18.9984 35.6762 19.1132 35.5804C20.5137 34.4115 21.4368 32.8929 22.2336 31.285C22.7819 30.1789 23.2358 29.0326 23.6544 27.8721C23.6664 27.839 23.6617 27.7939 23.7391 27.7808L23.7393 27.7812Z" fill="#F8FBFD"/>
<path d="M17.6636 16.1309C18.0711 16.6213 18.3824 17.0714 18.6791 17.5319C20.1746 19.8533 21.2514 22.3746 22.2156 24.9497C22.251 25.0445 22.2608 25.1274 22.2248 25.227C21.2932 27.8094 20.3548 30.389 18.9702 32.7757C18.7868 33.0921 18.5754 33.3923 18.3756 33.6991C18.3555 33.7302 18.3246 33.7542 18.2514 33.8313C16.4315 27.9823 16.3441 22.1265 17.6636 16.1311V16.1309Z" fill="#F8FBFD"/>
<path d="M29.8312 14.4731C31.5439 20.3045 31.6076 26.0938 30.2862 31.9325C30.1295 31.8902 30.091 31.77 30.0263 31.6824C28.7574 29.9634 27.8685 28.0442 27.0866 26.0702C26.6955 25.0825 26.3478 24.0788 26.0289 23.0653C25.9908 22.9439 25.9589 22.834 26.0097 22.7018C26.9121 20.3565 27.7927 18.0017 28.9991 15.7883C29.207 15.4068 29.4499 15.0445 29.6782 14.6742C29.7082 14.6257 29.7471 14.5828 29.8312 14.4731Z" fill="#F8FBFD"/>
<path d="M24.1582 43.2295H23.8457C23.9499 43.2819 24.053 43.2807 24.1582 43.2295Z" fill="white"/>
<path d="M12.7656 15.4893C12.9525 15.6688 13.1834 15.7756 13.4122 15.8863C13.8645 16.1051 14.3547 16.2275 14.8119 16.4346C14.9742 16.5081 14.9888 16.6313 14.9609 16.782C14.9323 16.9363 14.8301 16.9674 14.6938 16.958C14.4445 16.9412 14.2057 16.8686 13.9615 16.8246C13.7352 16.7838 13.5076 16.7455 13.2773 16.7709C13.1619 16.7836 13.0385 16.8229 13.017 16.9564C12.9975 17.0783 13.09 17.1557 13.1901 17.205C13.2745 17.2466 13.3655 17.2789 13.4568 17.3031C13.8856 17.4173 14.3142 17.5331 14.7458 17.6361C14.9208 17.6778 14.9724 17.7818 14.9517 17.9398C14.9298 18.1048 14.8291 18.187 14.6623 18.1784C14.4902 18.1696 14.3185 18.1549 14.1335 18.142C14.0326 18.1711 13.8946 18.0642 13.8023 18.2214C13.6572 18.4687 13.7084 18.6463 13.98 18.7386C14.1965 18.8121 14.4091 18.8919 14.62 18.9805C14.7681 19.0427 14.9425 19.0773 15.0868 18.9504C15.3455 18.7226 15.5819 18.4721 15.8169 18.22C16.3484 17.65 16.912 17.1146 17.5434 16.6549C17.7669 16.4922 17.77 16.4967 17.5895 16.2855C17.5854 16.2807 17.5811 16.2758 17.5766 16.2713C16.6654 15.3693 15.6928 14.5544 14.4687 14.1002C14.2245 14.0097 13.9795 13.9158 13.7159 13.8984C13.5495 13.8875 13.4237 13.9723 13.3741 14.1211C13.3271 14.2617 13.449 14.3348 13.5548 14.3933C13.7039 14.4758 13.8573 14.5513 14.0094 14.6285C14.3496 14.8016 14.685 14.9836 14.9892 15.2159C15.1552 15.3427 15.1611 15.4766 15.0311 15.6399C14.9034 15.8002 14.7421 15.7549 14.5952 15.7026C14.2839 15.592 13.9787 15.4641 13.6721 15.3403C13.4372 15.2455 13.219 15.1078 12.9599 15.0759C12.8406 15.0613 12.7536 15.0853 12.694 15.2042C12.6316 15.3282 12.6815 15.408 12.7657 15.4889L12.7656 15.4893Z" fill="white"/>
<path d="M12.915 12.4423C13.6174 12.717 14.3214 12.9864 14.9999 13.3193C16.2856 13.9497 17.4152 14.779 18.328 15.8888C18.3966 15.9723 18.4486 15.9825 18.5335 15.9262C18.8506 15.715 19.1549 15.4839 19.4959 15.3098C19.5759 15.269 19.5712 15.2256 19.4996 15.1708C18.7294 14.5811 17.9011 14.0776 17.0415 13.6374C15.882 13.0437 14.6291 12.6984 13.363 12.4088C13.1634 12.3631 12.9602 12.3077 12.7402 12.3273C12.778 12.4133 12.855 12.4188 12.915 12.4423Z" fill="white"/>
<path d="M12.6868 21.7752C12.8493 21.614 13.0249 21.466 13.1915 21.3086C13.4297 21.0833 13.6434 20.8317 13.9348 20.6389C13.8597 20.5912 13.7957 20.5517 13.7328 20.5104C13.6635 20.465 13.5924 20.4222 13.5274 20.3714C12.8249 19.8209 12.3106 19.1182 11.8916 18.3401C11.243 17.1358 10.995 15.8349 10.971 14.4817C10.9655 14.1728 10.9694 13.8636 10.969 13.5547C10.9585 13.5588 10.944 13.5619 10.9424 13.5682C10.8181 14.1055 10.6824 14.639 10.6149 15.1898C10.4794 16.2961 10.5466 17.3869 10.7889 18.4713C10.9518 19.2003 11.2936 19.8501 11.6552 20.4948C11.9021 20.9351 12.1499 21.3712 12.5056 21.7351C12.5541 21.7847 12.5928 21.8686 12.6868 21.7754V21.7752Z" fill="white"/>
<path d="M25.139 41.011C25.1529 40.9782 25.2035 40.9488 25.1771 40.9131C24.9867 40.6549 25.1259 40.4301 25.2502 40.2103C25.6718 39.4657 26.0258 38.6943 26.2276 37.8587C26.2559 37.741 26.3224 37.6382 26.3904 37.5371C26.4917 37.3867 26.6137 37.3887 26.7504 37.4782C26.9669 37.6202 26.9804 37.8351 26.937 38.0558C26.8169 38.6661 26.5574 39.2246 26.2747 39.7733C26.1838 39.9498 26.0381 40.0986 25.9911 40.3022C26.0684 40.3227 26.0958 40.2668 26.1247 40.2337C26.6261 39.6651 27.1317 39.0998 27.5631 38.4743C27.6286 38.3793 27.6761 38.2776 27.6802 38.1565C27.6876 37.9391 27.7346 37.7279 27.8194 37.5277C28.1174 36.8249 28.2721 36.0868 28.367 35.3337C28.3795 35.2348 28.3519 35.1161 28.4661 35.0662C28.5824 35.0154 28.6863 35.0737 28.7856 35.1388C29.023 35.294 29.0214 35.5316 28.9999 35.7692C28.979 35.9999 28.9387 36.2291 28.9057 36.4688C29.4811 36.1716 31.2386 32.0866 31.1471 31.2757C30.5204 31.5657 29.9365 31.9227 29.3671 32.304C28.9557 32.5796 28.5961 32.9198 28.3089 33.3187C27.8648 33.9356 27.4129 34.5393 26.8253 35.032C25.4896 36.1523 23.8027 36.4401 22.2045 35.701C21.2554 35.262 20.4979 34.5807 19.9521 33.6912C19.2048 32.473 18.0855 31.7571 16.7822 31.2573C16.791 31.3293 16.7914 31.3999 16.809 31.4658C17.09 32.517 17.4283 33.5477 17.9316 34.517C18.2095 35.0522 18.4938 35.5842 18.7806 36.1147C18.8626 36.2661 18.9306 36.4327 19.0951 36.5222C19.1252 36.453 19.0843 36.3918 19.071 36.3275C18.9924 35.9473 18.9901 35.5697 19.1043 35.1949C19.1422 35.0703 19.2355 35.0138 19.3516 34.9917C19.4539 34.9724 19.5211 35.0488 19.5747 35.1143C19.6263 35.1777 19.6265 35.268 19.6275 35.3521C19.632 35.7285 19.6948 36.0948 19.7955 36.4585C19.924 36.9213 20.0724 37.3797 20.1565 37.8534C20.185 38.015 20.2497 38.1528 20.3369 38.2875C20.6078 38.705 20.9149 39.0932 21.255 39.4571C21.5917 39.8172 21.9198 40.1855 22.2671 40.5669C22.2784 40.4657 22.2249 40.4217 22.1936 40.3708C21.8539 39.819 21.5156 39.2668 21.2611 38.6681C21.1343 38.3699 21.0585 38.0646 21.0902 37.7402C21.1036 37.602 21.1586 37.4739 21.3043 37.4299C21.4466 37.3869 21.5452 37.4714 21.6281 37.5781C21.6836 37.6497 21.7169 37.7301 21.7456 37.8151C21.9689 38.4774 22.2041 39.134 22.553 39.7449C22.7579 40.1037 22.9274 40.4811 23.0866 40.8624C23.1107 40.9201 23.1519 40.9934 23.1347 41.0413C23.0602 41.2488 23.1944 41.3687 23.3107 41.4897C23.4564 41.6412 23.6163 41.7793 23.7716 41.9214C23.9943 42.1252 23.9945 42.1242 24.2203 41.9392C24.2745 41.8949 24.3365 41.8593 24.3871 41.8114C24.6533 41.5595 24.9871 41.371 25.1392 41.0112L25.139 41.011Z" fill="white"/>
<path d="M37.3687 17.3804C37.4571 16.6119 37.4457 15.839 37.3337 15.072C37.2643 14.5969 37.1765 14.1243 37.0247 13.6616C37.0247 13.7371 37.0279 13.8128 37.0243 13.8881C36.986 14.6769 36.9848 15.467 36.8454 16.2498C36.6178 17.5284 36.0863 18.6543 35.2293 19.632C34.9579 19.9416 34.6472 20.203 34.3327 20.4631C34.1407 20.6218 34.1327 20.6301 34.3169 20.806C34.6302 21.1054 34.9565 21.3913 35.2733 21.6871C35.3585 21.7667 35.401 21.739 35.4696 21.6615C35.8443 21.2384 36.1037 20.7435 36.3939 20.2638C36.935 19.3694 37.2508 18.4078 37.3691 17.3802L37.3687 17.3804Z" fill="white"/>
<path d="M34.321 18.3879C34.2684 18.2485 34.1929 18.1384 34.0128 18.1662C33.9187 18.1807 33.8217 18.1773 33.7189 18.1822C33.5673 18.1732 33.4078 18.2014 33.2502 18.1568C33.1237 18.121 33.0472 18.0477 33.0531 17.9132C33.0589 17.7771 33.0738 17.6468 33.2492 17.6103C33.4604 17.5663 33.6706 17.5145 33.8781 17.4554C34.2009 17.3633 34.5362 17.3095 34.8399 17.156C34.9205 17.1154 35.0003 17.068 35.001 16.9624C35.002 16.8465 34.9134 16.8021 34.8264 16.7591C34.6849 16.6887 34.5427 16.7153 34.3986 16.7528C34.054 16.8422 33.7163 16.9624 33.3587 16.9945C33.1995 17.0088 33.0605 16.9707 33.0097 16.7998C32.9579 16.6259 33.0249 16.5141 33.2257 16.4339C33.5321 16.3113 33.8407 16.1942 34.1495 16.0776C34.5439 15.9288 34.9224 15.7517 35.2468 15.476C35.3442 15.3932 35.3866 15.2947 35.318 15.1731C35.2474 15.0481 35.1383 15.017 35.0075 15.0587C34.923 15.0857 34.8399 15.1185 34.759 15.1551C34.4001 15.3172 34.0429 15.4826 33.6843 15.6449C33.5104 15.7235 33.3364 15.806 33.1364 15.7751C32.9792 15.7509 32.8882 15.6754 32.8832 15.4994C32.8779 15.3176 32.9799 15.2237 33.1151 15.1375C33.5445 14.8631 34.0151 14.6645 34.452 14.4042C34.556 14.3422 34.6614 14.2673 34.6281 14.1408C34.5908 13.9991 34.4795 13.9038 34.3194 13.8991C34.2629 13.8974 34.205 13.9071 34.1493 13.9189C33.812 13.9895 33.4864 14.0994 33.1671 14.2263C32.4342 14.5176 31.8177 14.9885 31.231 15.5016C30.9188 15.7745 30.6225 16.0645 30.3699 16.3958C30.3071 16.4781 30.2819 16.534 30.4023 16.6126C30.7766 16.8569 31.1045 17.1615 31.4324 17.4638C31.9156 17.9091 32.374 18.3785 32.8047 18.8748C32.8413 18.9171 32.9049 19.023 32.9406 18.9634C33.0204 18.8304 33.0955 18.9198 33.1589 18.9452C33.2879 18.997 33.4201 18.9963 33.5284 18.9339C33.7326 18.8162 33.9616 18.7522 34.1598 18.6273C34.2433 18.5747 34.3775 18.5377 34.3211 18.3885L34.321 18.3879Z" fill="white"/>
<path d="M31.4261 14.2367C32.3321 13.5529 33.3663 13.1092 34.4032 12.6718C34.6936 12.5494 35.0045 12.4761 35.2734 12.3013C32.7208 12.664 30.4404 13.6448 28.4404 15.3042C28.828 15.4534 29.1543 15.6835 29.476 15.9211C29.553 15.978 29.6168 15.9844 29.6882 15.9008C29.808 15.7604 29.9424 15.6323 30.0659 15.495C30.4809 15.0339 30.9314 14.6102 31.4261 14.2369V14.2367Z" fill="white"/>
<path d="M37.065 25.6973L37.0645 25.6977C37.0645 25.6977 37.0646 25.6975 37.0647 25.6974L37.065 25.6973Z" fill="white"/>
<path d="M17.5195 30.6179C17.5213 30.6191 17.5233 30.62 17.525 30.6212L17.5256 30.6202L17.5195 30.6177V30.6179Z" fill="white"/>
<path d="M37.2645 25.5391C37.2645 25.5392 37.2637 25.541 37.2637 25.541L37.2646 25.5391H37.2645Z" fill="white"/>
<path d="M37.2229 25.5698C37.2229 25.5698 37.2238 25.5666 37.2238 25.5664L37.2227 25.5696L37.2229 25.5698Z" fill="white"/>
<path d="M19.0938 36.5271C19.0951 36.5255 19.0963 36.5249 19.0977 36.5237C19.0977 36.5235 19.0973 36.5231 19.0973 36.5229L19.0939 36.5271H19.0938Z" fill="white"/>
<path d="M19.4669 31.8607C19.8349 32.1918 20.1149 32.3556 20.5859 33.0834C20.9755 33.6853 21.3974 34.2555 22.0015 34.6589C23.3092 35.5324 25.098 35.5148 26.372 34.3341C26.7814 33.9545 27.1432 33.5406 27.423 33.0535C27.6582 32.6439 28.0219 32.3396 28.3731 32.0387C28.6948 31.7628 29.0147 31.4767 29.379 31.254C29.5942 31.1224 29.8166 30.9958 30.0495 30.9004C30.4808 30.7239 30.8803 30.4845 31.3054 30.2972C31.5025 30.2104 31.7149 30.1613 31.8864 30.015C31.9321 29.9759 32.0391 29.9202 32.0752 30.0678C32.0973 30.1578 32.1758 30.1189 32.2336 30.0938C32.5252 29.9685 32.8228 29.8555 33.1057 29.7131C33.6403 29.4444 34.1626 29.1517 34.6667 28.8285C35.0115 28.6073 35.3016 28.3162 35.6321 28.0768C35.9301 27.8612 36.1788 27.588 36.4723 27.3653C36.662 27.2214 36.8153 27.0291 36.9946 26.849C36.8707 26.8164 36.7932 26.8837 36.7111 26.9228C36.2805 27.1271 35.8316 27.2517 35.3521 27.2628C35.2983 27.264 35.2522 27.2517 35.2054 27.239C35.1452 27.2227 35.0834 27.2043 35.0895 27.1142C35.0952 27.0329 35.1552 27.028 35.2074 27.0123C35.2618 26.9961 35.3185 26.9846 35.375 26.9785C36.3533 26.8735 36.959 26.2423 37.4813 25.4924C37.6358 25.2705 37.7922 25.0501 37.9467 24.8281C38.0343 24.7022 38.1176 24.5743 38.101 24.4091C38.0808 24.2073 38.0236 24.1604 37.8345 24.2298C37.5824 24.3223 37.338 24.442 37.1405 24.6242C36.6696 25.0591 36.1145 25.0028 35.5529 24.9191C35.4563 24.9046 35.4287 24.8209 35.4311 24.7288C35.4336 24.6308 35.5032 24.6234 35.5762 24.6142C35.9426 24.5681 36.3104 24.5296 36.6747 24.4707C37.0155 24.4158 37.3319 24.2707 37.6421 24.1297C37.8871 24.0182 38.0554 23.7916 38.2273 23.5849C38.2566 23.5497 38.2916 23.4987 38.2609 23.4461C38.2324 23.397 38.181 23.4242 38.1395 23.4238C37.9371 23.422 37.7375 23.4568 37.5341 23.458C37.234 23.4596 36.9541 23.3876 36.6661 23.3158C35.6294 23.0571 34.8509 22.4039 34.1229 21.6784C33.6976 21.2545 33.3727 20.7445 33.0179 20.2617C32.6208 19.7211 32.1924 19.2044 31.7372 18.7148C31.3083 18.2537 30.86 17.8108 30.3631 17.4119C29.9269 17.0617 29.5006 16.6849 29.0219 16.4125C28.1631 15.9239 27.3209 15.3795 26.3178 15.1914C26.2488 15.1785 26.1569 15.1554 26.0478 15.1235C24.9115 15.129 23.775 15.1345 22.6387 15.14C22.5627 15.1468 22.4866 15.1529 22.4103 15.1589C21.6868 15.2158 20.9839 15.3476 20.3141 15.6478C18.9112 16.2764 17.7493 17.223 16.6763 18.3055C15.9043 19.0846 15.2426 19.9481 14.5776 20.8139C14.1433 21.3792 13.6848 21.9254 13.1439 22.4011C12.1686 23.2587 11.044 23.5568 9.7738 23.3722C9.73117 23.3659 9.68815 23.3616 9.62988 23.3544C9.83657 23.7619 10.1457 24.0151 10.5607 24.1725C11.1901 24.4115 11.8448 24.5387 12.4998 24.6723C12.6334 24.6995 12.8373 24.6954 12.8156 24.9003C12.7937 25.1056 12.6003 25.0755 12.4517 25.0732C11.9638 25.0657 11.5078 24.9441 11.0913 24.684C10.9601 24.6021 10.8059 24.5743 10.6662 24.5143C10.4856 24.4367 10.3168 24.3319 10.1397 24.2454C10.0215 24.188 9.95761 24.2269 9.96445 24.3647C9.96797 24.4349 9.96699 24.5047 10.0053 24.5681C10.3708 25.1723 10.7057 25.7972 11.1698 26.3359C11.3995 26.6029 11.7169 26.7747 12.0401 26.8338C12.2667 26.8752 12.4801 26.9437 12.6993 27.0002C12.7847 27.0223 12.8641 27.061 12.8549 27.1635C12.8447 27.2763 12.7435 27.2501 12.6736 27.2536C12.3451 27.27 12.0262 27.2036 11.7083 27.1328C11.5851 27.1054 11.4044 27.0389 11.3516 27.132C11.2886 27.2431 11.4818 27.2845 11.5583 27.36C11.7534 27.5528 11.9087 27.7825 12.1211 27.9587C12.8295 28.5463 13.5854 29.0586 14.4024 29.4884C15.3735 29.9992 16.4081 30.3488 17.426 30.7424C17.5205 30.779 17.6132 30.8201 17.7064 30.859C17.7354 30.8711 17.7618 30.8768 17.7944 30.8844C17.9121 30.9112 18.0154 30.9039 18.0897 30.8912C18.436 31.0782 18.9391 31.3858 19.4669 31.8603V31.8607ZM37.1855 25.6134C37.1769 25.5802 37.1927 25.5669 37.224 25.5661C37.2267 25.5409 37.24 25.5313 37.2647 25.5389C37.2523 25.5045 37.2682 25.491 37.301 25.4906L37.3081 25.4867L37.3006 25.4934V25.4936C37.3118 25.5278 37.2958 25.5409 37.2637 25.5419C37.2611 25.5671 37.2478 25.5767 37.2232 25.5692C37.2347 25.604 37.2203 25.6175 37.1861 25.615L37.1804 25.6197L37.1857 25.6134H37.1855ZM37.0666 25.6897C37.0666 25.6897 37.0705 25.693 37.0701 25.6934C37.0697 25.6938 37.0666 25.696 37.0656 25.6967C37.0668 25.696 37.0695 25.6938 37.0695 25.6938C37.0723 25.6918 37.075 25.6897 37.0777 25.6877C37.0734 25.6909 37.0693 25.694 37.065 25.6969L37.0646 25.6973L37.0664 25.6897H37.0666ZM26.9396 21.1915C27.1301 20.7744 27.4625 20.4756 27.8135 20.197C27.958 20.0824 28.1083 19.9745 28.2963 19.9367C28.4801 19.8998 28.66 19.9776 28.7315 20.1284C28.8156 20.3051 28.7143 20.4172 28.5929 20.521C28.5542 20.5541 28.5141 20.5867 28.4705 20.6125C28.0659 20.8517 27.7599 21.1845 27.5215 21.5863C27.4275 21.7447 27.4138 21.7447 27.2871 21.7443C26.9842 21.7435 26.8094 21.4766 26.9394 21.1913L26.9396 21.1915ZM25.3548 18.453C25.5235 18.4588 25.758 18.6859 25.7625 18.8478C25.7685 19.0601 25.527 19.3595 25.3514 19.3572C25.1358 19.3544 24.9539 19.18 24.9564 18.9784C24.9592 18.7459 25.1856 18.4471 25.3548 18.4532V18.453ZM23.9917 17.611C24.2042 17.6049 24.4015 17.8286 24.4005 18.0744C24.3995 18.3241 24.248 18.5267 24.0607 18.5281C23.8217 18.5298 23.6559 18.3538 23.6545 18.0971C23.6532 17.8355 23.8051 17.6163 23.9917 17.611ZM24.3839 19.926C24.3902 20.1106 24.2541 20.2521 24.0671 20.2549C23.8714 20.2578 23.6782 20.1174 23.6721 19.968C23.6637 19.7576 23.8112 19.6018 24.0204 19.6002C24.2474 19.5985 24.3765 19.7142 24.3837 19.926H24.3839ZM22.546 18.4909C22.7826 18.4903 23.0789 18.7786 23.0763 19.0071C23.0742 19.2039 22.8949 19.3734 22.6896 19.3726C22.4309 19.3716 22.1984 19.1301 22.2005 18.8646C22.2023 18.6604 22.3585 18.4913 22.5458 18.4909H22.546ZM19.2592 20.1194C19.3226 20.002 19.416 19.9197 19.5566 19.9125C19.6614 19.9254 19.7571 19.9579 19.8472 20.0075C20.3175 20.267 20.7111 20.6147 21.0322 21.0437C21.0809 21.1086 21.118 21.1856 21.1444 21.2627C21.2035 21.4352 21.1307 21.6221 20.9878 21.6907C20.7887 21.7863 20.5781 21.7488 20.4837 21.5722C20.2676 21.1688 19.9276 20.898 19.5539 20.6581C19.4571 20.5959 19.3658 20.528 19.2911 20.4383C19.207 20.3374 19.1998 20.2293 19.2592 20.1194ZM17.1619 25.5626C17.0658 25.2323 17.0686 24.887 17.1906 24.5522C17.0545 24.52 16.9387 24.5393 16.8183 24.5994C16.3408 24.8373 15.9051 24.7259 15.5051 24.4142C15.3209 24.2707 15.261 24.065 15.3275 23.8821C15.4036 23.6735 15.4736 23.6359 15.6803 23.7194C15.8723 23.7971 16.0588 23.8829 16.27 23.9042C16.5131 23.9289 16.7385 23.898 16.9434 23.7574C17.2164 23.57 17.4726 23.3567 17.7704 23.2071C18.4888 22.846 19.2127 22.8293 19.9362 23.1893C20.5195 23.4795 20.9432 23.942 21.2875 24.4811C21.7703 25.237 22.04 26.0755 22.1954 26.9509C22.3075 27.5823 22.4248 28.2137 22.4844 28.8531C22.5318 29.3604 22.5783 29.8676 22.6203 30.3752C22.6418 30.6355 22.6544 30.8965 22.6677 31.1574C22.6727 31.2587 22.6892 31.3132 22.8135 31.2624C23.5619 30.9567 24.3215 31.0172 25.0789 31.219C25.2333 31.2602 25.2607 31.2276 25.2734 31.0823C25.3426 30.2892 25.3978 29.4939 25.5028 28.7053C25.6467 27.6228 25.7771 26.5319 26.1549 25.499C26.4985 24.5597 27.0122 23.723 27.9165 23.2192C28.6578 22.8065 29.4275 22.81 30.176 23.2269C30.4087 23.3565 30.623 23.52 30.8433 23.6713C31.2307 23.9375 31.6343 24.0067 32.0663 23.7842C32.1058 23.7638 32.1496 23.7519 32.1896 23.7327C32.3136 23.6735 32.4421 23.6567 32.5383 23.7677C32.6361 23.8806 32.6409 24.0126 32.5713 24.1537C32.3731 24.555 31.8175 24.8051 31.3658 24.6748C31.1857 24.623 31.0146 24.5399 30.8342 24.4689C30.79 24.5908 30.8492 24.693 30.8666 24.7959C30.965 25.376 30.752 25.8712 30.4515 26.3379C30.0821 26.9112 29.5045 27.0948 28.8637 27.1298C28.2624 27.1627 27.8545 26.8387 27.529 26.3762C27.3414 26.1099 27.1832 25.8291 27.0956 25.4636C26.9335 25.7736 26.8403 26.0628 26.7626 26.3571C26.6037 26.9603 26.503 27.5749 26.4183 28.1922C26.3293 28.8412 26.2233 29.4884 26.1535 30.1394C26.1017 30.6224 26.0943 31.1136 25.9836 31.5856C25.9253 31.8343 25.9643 32.0377 26.0462 32.2581C26.1052 32.4168 26.1101 32.5946 26.0528 32.7465C25.7716 33.4929 25.282 34.0545 24.5038 34.2934C23.8028 34.5087 23.1819 34.2938 22.6532 33.8124C22.4135 33.5942 22.189 33.3609 22.0206 33.0731C21.8515 32.7839 21.7993 32.4941 21.9264 32.1902C22.0425 31.9123 21.9262 31.6456 21.9213 31.3748C21.9182 31.1982 21.8918 31.0181 21.8646 30.8427C21.8311 30.6278 21.8057 30.4083 21.7942 30.1963C21.7789 29.9169 21.7238 29.6431 21.7019 29.3656C21.6741 29.0121 21.6378 28.6556 21.5812 28.3033C21.4514 27.4932 21.3398 26.6791 21.0515 25.9038C21.0124 25.7984 20.9882 25.6866 20.9055 25.5874C20.7823 25.7229 20.7475 25.8946 20.678 26.0471C20.2177 27.0577 18.9295 27.4298 18.0306 26.7923C17.603 26.4891 17.3085 26.0661 17.1623 25.563L17.1619 25.5626Z" fill="#E85A24"/>
<path d="M38.6551 22.5073C37.847 22.7323 37.0443 22.712 36.2533 22.4108C36.1207 22.3604 36.1202 22.3103 36.1974 22.2102C36.31 22.0642 36.4086 21.9073 36.5214 21.7613C37.4099 20.6107 37.9774 19.3243 38.1903 17.8826C38.3425 16.8526 38.3155 15.8235 38.2048 14.794C38.0939 13.7621 37.7465 12.7919 37.4121 11.8187C37.3186 11.5469 37.1284 11.3957 36.8472 11.3398C36.5648 11.2837 36.285 11.3343 36.0089 11.3617C35.0648 11.4558 34.1278 11.5958 33.217 11.8789C32.8707 11.9865 32.5017 12.0318 32.1691 12.1689C31.7722 12.3326 31.3676 12.482 30.9812 12.6699C30.8586 12.7295 30.7229 12.7434 30.6067 12.8153C30.4212 12.9303 30.2292 13.0349 30.0432 13.1495C29.578 13.4362 29.1066 13.7107 28.6641 14.032C28.36 14.2528 28.0223 14.7504 27.6338 14.7848C27.491 14.7975 27.3516 14.7451 27.2167 14.6968C25.9466 14.2418 24.5753 14.077 23.2331 14.2078C22.6074 14.2688 22.0073 14.4266 21.3937 14.5508C21.0877 14.6127 20.7035 14.629 20.4162 14.7627C20.4058 14.7674 20.3552 14.794 20.295 14.7829C20.2565 14.7756 20.222 14.7529 20.1829 14.7158C19.8867 14.435 19.5685 14.1786 19.2395 13.9387C17.7338 12.8415 16.0406 12.1619 14.2399 11.7328C13.72 11.6089 13.192 11.5195 12.6603 11.4517C12.1578 11.3875 11.657 11.3128 11.1492 11.3091C10.8047 11.3066 10.5992 11.4841 10.5245 11.7878C10.4421 12.1216 10.3281 12.444 10.2296 12.7714C10.0108 13.4978 9.84536 14.2359 9.74544 14.986C9.62459 15.8929 9.63065 16.8038 9.73859 17.714C9.84066 18.5753 10.0546 19.408 10.4384 20.1833C10.8015 20.9167 11.227 21.6181 11.7648 22.2437C11.8006 22.2853 11.8479 22.3242 11.8526 22.397C11.0065 22.7096 10.1512 22.7302 9.28729 22.4783C9.00258 22.3954 8.76774 22.4891 8.67642 22.739C8.62988 22.8661 8.61346 22.9992 8.63595 23.1343C8.77693 23.9834 9.05948 24.7804 9.47911 25.5346C9.77379 26.0641 10.1217 26.5596 10.4263 27.0803C10.7073 27.5604 11.0475 27.98 11.4423 28.3629C12.4198 29.3108 13.5547 30.0163 14.8097 30.5345C15.0625 30.6389 15.3205 30.7318 15.5793 30.8204C15.724 30.8699 15.7786 30.9536 15.7985 31.109C15.8607 31.5938 15.9777 32.0721 16.1229 32.5353C16.2878 33.0607 16.5361 33.5593 16.7354 34.0746C17.1853 35.239 17.823 36.3037 18.4862 37.353C19.1591 38.4175 19.9872 39.3647 20.7969 40.3246C21.6725 41.3627 22.7206 42.2241 23.7064 43.1494C23.9154 43.3455 24.1142 43.3255 24.3289 43.1189C24.4574 42.9951 24.5751 42.8594 24.7089 42.7417C25.5041 42.0416 26.2896 41.3346 26.9992 40.5424C28.1077 39.3047 29.1294 38.0053 29.9924 36.5837C30.8805 35.1207 31.6077 33.5877 32.0326 31.9231C32.1016 31.6526 32.1832 31.3806 32.1581 31.0969C32.1474 30.9747 32.1877 30.9178 32.2983 30.8711C32.8838 30.6237 33.4823 30.4041 34.0302 30.075C34.7547 29.6397 35.5343 29.2895 36.153 28.6924C36.7441 28.122 37.3808 27.5921 37.7822 26.8539C37.9858 26.4796 38.1941 26.1079 38.3931 25.7313C38.8256 24.9136 39.1678 24.062 39.3528 23.1512C39.4559 22.6441 39.1528 22.3696 38.6557 22.508L38.6551 22.5073ZM36.8403 16.266C36.9798 15.4833 36.9809 14.6931 37.0193 13.9043C37.023 13.829 37.0198 13.7533 37.0198 13.6779C37.1714 14.1405 37.2594 14.6131 37.3288 15.0883C37.4408 15.8552 37.4522 16.6282 37.3638 17.3966C37.2457 18.4242 36.9299 19.3859 36.3886 20.2803C36.0985 20.7599 35.839 21.2548 35.4643 21.678C35.3959 21.7554 35.3535 21.7832 35.268 21.7036C34.9512 21.4077 34.6249 21.1219 34.3116 20.8225C34.1274 20.6465 34.1354 20.6383 34.3277 20.4795C34.6423 20.2194 34.9528 19.958 35.2242 19.6485C36.0812 18.6708 36.6127 17.5447 36.8403 16.2662V16.266ZM35.242 15.4917C34.9176 15.7676 34.539 15.9446 34.1446 16.0934C33.8359 16.2099 33.5271 16.327 33.2209 16.4496C33.0201 16.53 32.953 16.6419 33.0048 16.8155C33.0559 16.9864 33.1947 17.0245 33.3539 17.0103C33.7117 16.9782 34.0492 16.8579 34.3937 16.7686C34.5381 16.7312 34.68 16.7046 34.8218 16.7748C34.9088 16.818 34.9974 16.8624 34.9964 16.9782C34.9954 17.0838 34.9156 17.1311 34.8351 17.1718C34.5316 17.3253 34.1963 17.3792 33.8732 17.4711C33.6658 17.5304 33.4557 17.5822 33.2444 17.626C33.0692 17.6624 33.0543 17.7928 33.0482 17.9289C33.0424 18.0636 33.1188 18.1369 33.2453 18.1725C33.4029 18.2171 33.5625 18.1888 33.7141 18.198C33.8169 18.1929 33.9137 18.1962 34.0077 18.1819C34.1878 18.1544 34.2633 18.2642 34.3159 18.4037C34.372 18.5529 34.2381 18.5898 34.1546 18.6424C33.9563 18.7674 33.7275 18.8315 33.5232 18.949C33.4149 19.0114 33.2829 19.0122 33.1536 18.9604C33.0903 18.9349 33.0152 18.8456 32.9354 18.9785C32.8996 19.0382 32.8361 18.9322 32.7995 18.89C32.3685 18.3937 31.9102 17.9242 31.427 17.479C31.0991 17.1767 30.7712 16.8722 30.3969 16.6278C30.2765 16.5492 30.3017 16.4932 30.3645 16.4109C30.6171 16.0797 30.9133 15.7897 31.2256 15.5167C31.8122 15.0038 32.4288 14.5328 33.1617 14.2414C33.481 14.1145 33.8065 14.0046 34.1438 13.934C34.1996 13.9223 34.2575 13.9125 34.314 13.9143C34.4741 13.9192 34.5852 14.0142 34.6227 14.156C34.6562 14.2825 34.5506 14.3574 34.4467 14.4194C34.0097 14.6796 33.539 14.8785 33.1096 15.1526C32.9747 15.2389 32.8726 15.3329 32.8777 15.5148C32.8828 15.6908 32.9737 15.766 33.131 15.7905C33.331 15.8214 33.505 15.7389 33.6789 15.6602C34.0377 15.498 34.3949 15.3325 34.7535 15.1704C34.8345 15.1339 34.9176 15.101 35.0021 15.074C35.1329 15.0324 35.242 15.0635 35.3126 15.1884C35.3812 15.31 35.3388 15.4086 35.2414 15.4913L35.242 15.4917ZM35.2684 12.3171C34.9995 12.4919 34.6886 12.5653 34.3982 12.6877C33.3615 13.1251 32.3271 13.5688 31.4212 14.2526C30.9264 14.626 30.4759 15.0496 30.061 15.5107C29.9374 15.6481 29.8031 15.776 29.6832 15.9164C29.6118 16.0001 29.5481 15.9936 29.471 15.9367C29.1494 15.6992 28.823 15.469 28.4355 15.3198C30.4354 13.6605 32.7158 12.6796 35.2684 12.3169V12.3171ZM13.3582 12.4247C14.6243 12.7143 15.8772 13.0594 17.0367 13.6532C17.8963 14.0934 18.7246 14.5967 19.4948 15.1867C19.5662 15.2414 19.5711 15.2848 19.4911 15.3257C19.1501 15.4997 18.8458 15.7308 18.5287 15.942C18.4438 15.9985 18.3918 15.9882 18.3232 15.9047C17.4104 14.7948 16.2807 13.9655 14.9951 13.3351C14.3166 13.0023 13.6126 12.7326 12.9102 12.4581C12.8502 12.4346 12.7732 12.4292 12.7354 12.3431C12.9552 12.3236 13.1586 12.3791 13.3582 12.4247ZM12.6885 15.2205C12.7483 15.1018 12.8353 15.0775 12.9546 15.0922C13.2135 15.1241 13.4317 15.2617 13.6666 15.3566C13.9732 15.4804 14.2784 15.6082 14.5897 15.7189C14.7364 15.7711 14.8979 15.8165 15.0256 15.6561C15.1556 15.4929 15.1499 15.3589 14.9837 15.2322C14.6795 15.0001 14.3441 14.8181 14.0039 14.6448C13.8518 14.5674 13.6985 14.4921 13.5493 14.4096C13.4435 14.3511 13.3217 14.278 13.3686 14.1374C13.4183 13.9884 13.5442 13.9037 13.7104 13.9147C13.974 13.9321 14.219 14.0257 14.4632 14.1165C15.6875 14.5707 16.6601 15.3853 17.5713 16.2875C17.5758 16.292 17.5801 16.2969 17.584 16.3018C17.7645 16.513 17.7614 16.5085 17.5379 16.6712C16.9065 17.1309 16.3427 17.6663 15.8115 18.2363C15.5764 18.4883 15.3402 18.7388 15.0813 18.9666C14.9372 19.0935 14.7628 19.0589 14.6146 18.9967C14.4036 18.9082 14.191 18.8284 13.9746 18.7549C13.703 18.6626 13.6517 18.485 13.7968 18.2377C13.8891 18.0804 14.027 18.1874 14.1279 18.1583C14.3128 18.1712 14.4845 18.1858 14.6566 18.1946C14.8234 18.203 14.9241 18.1209 14.946 17.9561C14.9667 17.7983 14.9151 17.6942 14.7401 17.6524C14.3085 17.5494 13.8799 17.4336 13.4511 17.3194C13.3598 17.2952 13.2691 17.2629 13.1844 17.2212C13.0841 17.1718 12.9918 17.0945 13.0113 16.9727C13.0328 16.8392 13.1562 16.7999 13.2716 16.7871C13.5017 16.7617 13.7294 16.8 13.9558 16.8409C14.1998 16.8851 14.4388 16.9575 14.6881 16.9743C14.8246 16.9835 14.9266 16.9526 14.9554 16.7983C14.9833 16.6475 14.9687 16.5243 14.8064 16.4508C14.3492 16.2437 13.859 16.1213 13.4067 15.9025C13.1779 15.7918 12.947 15.6851 12.7601 15.5056C12.6758 15.4246 12.6259 15.3448 12.6883 15.2209L12.6885 15.2205ZM10.9922 13.5166C10.9891 13.5347 11.0035 13.5647 10.9685 13.565C10.9711 13.5431 10.9738 13.521 10.9766 13.4991C10.982 13.505 10.993 13.5117 10.9922 13.5166ZM11.6506 20.5108C11.289 19.8661 10.9472 19.2161 10.7843 18.4874C10.5419 17.4031 10.4746 16.3124 10.6103 15.2058C10.6778 14.655 10.8135 14.1215 10.9378 13.5842C10.9392 13.578 10.9537 13.5748 10.9644 13.5707C10.9648 13.8797 10.9609 14.1888 10.9664 14.4978C10.9904 15.8509 11.2384 17.1518 11.887 18.3561C12.306 19.1342 12.8203 19.837 13.5229 20.3874C13.5878 20.4382 13.6592 20.4811 13.7282 20.5264C13.7911 20.5677 13.8551 20.6074 13.9302 20.6549C13.6388 20.8477 13.4251 21.0994 13.1869 21.3246C13.0205 21.482 12.8449 21.6301 12.6824 21.7912C12.5884 21.8845 12.5497 21.8008 12.5012 21.7509C12.1455 21.387 11.8977 20.9508 11.651 20.5106L11.6506 20.5108ZM19.1059 36.5655C19.1016 36.5573 19.0973 36.5491 19.093 36.5409C19.1032 36.5325 19.111 36.5337 19.1137 36.5497C19.1145 36.5544 19.1088 36.5603 19.1059 36.5657V36.5655ZM28.9014 36.4848C28.9345 36.2451 28.9748 36.0161 28.9957 35.7852C29.0172 35.5476 29.0188 35.31 28.7814 35.1547C28.6818 35.0896 28.578 35.0313 28.4619 35.0822C28.3475 35.132 28.375 35.2507 28.3625 35.3497C28.2677 36.1027 28.113 36.8409 27.815 37.5436C27.7302 37.7439 27.6832 37.955 27.6758 38.1725C27.6717 38.2935 27.6242 38.3952 27.5589 38.4902C27.1275 39.1158 26.6218 39.6813 26.1205 40.2497C26.0915 40.2825 26.0642 40.3387 25.9867 40.3181C26.0339 40.1146 26.1793 39.9658 26.2703 39.7892C26.553 39.2405 26.8125 38.6823 26.9326 38.0718C26.976 37.851 26.9625 37.6361 26.746 37.4942C26.6095 37.4046 26.4875 37.4025 26.386 37.553C26.318 37.6541 26.2515 37.7572 26.2231 37.8747C26.0213 38.7104 25.6674 39.4818 25.246 40.2262C25.1215 40.4462 24.9822 40.6711 25.1727 40.929C25.1991 40.9648 25.1485 40.9941 25.1346 41.027C24.9824 41.387 24.6487 41.5753 24.3825 41.8271C24.3319 41.875 24.2699 41.9106 24.2157 41.955C23.9899 42.14 23.9897 42.1412 23.767 41.9372C23.6117 41.795 23.452 41.657 23.3061 41.5055C23.1897 41.3844 23.0556 41.2645 23.1301 41.0571C23.1473 41.0092 23.106 40.9358 23.082 40.8782C22.923 40.4967 22.7533 40.1195 22.5484 39.7607C22.1995 39.15 21.9643 38.4932 21.741 37.8309C21.7122 37.7458 21.679 37.6653 21.6235 37.5939C21.5406 37.4873 21.442 37.4026 21.2997 37.4457C21.154 37.4897 21.099 37.6177 21.0855 37.756C21.0539 38.0804 21.1297 38.3856 21.2564 38.6838C21.511 39.2826 21.8493 39.8348 22.189 40.3866C22.2203 40.4374 22.2738 40.4814 22.2625 40.5827C21.9152 40.2012 21.5871 39.833 21.2504 39.4728C20.9105 39.1089 20.6033 38.721 20.3323 38.3033C20.2451 38.1688 20.1804 38.0307 20.1518 37.8692C20.068 37.3954 19.9193 36.9369 19.7909 36.4742C19.69 36.1107 19.6274 35.7443 19.6227 35.3679C19.6217 35.2838 19.6215 35.1933 19.5699 35.1301C19.5163 35.0646 19.4491 34.9881 19.3468 35.0075C19.2305 35.0296 19.1374 35.0861 19.0994 35.2107C18.9853 35.5855 18.9874 35.9631 19.0662 36.3432C19.0795 36.4076 19.1196 36.4686 19.0899 36.5376C18.9258 36.4478 18.8576 36.2816 18.7758 36.1305C18.489 35.6 18.2047 35.0679 17.9268 34.5327C17.4237 33.5634 17.0852 32.5327 16.8042 31.4815C16.7866 31.4156 16.7862 31.3452 16.7774 31.2731C18.0809 31.7729 19.2 32.4887 19.9475 33.707C20.4933 34.5965 21.2506 35.2777 22.1999 35.7167C23.7981 36.4559 25.4848 36.168 26.8207 35.0478C27.4083 34.555 27.8604 33.9514 28.3045 33.3345C28.5917 32.9354 28.9513 32.5953 29.3627 32.3198C29.9321 31.9385 30.516 31.5813 31.1427 31.2915C31.2342 32.1024 29.4767 36.1872 28.9012 36.4846L28.9014 36.4848ZM38.222 23.6013C38.0501 23.808 37.8818 24.0346 37.6366 24.1461C37.3264 24.287 37.0103 24.4319 36.6694 24.4871C36.3049 24.5459 35.9371 24.5845 35.5709 24.6306C35.498 24.6398 35.4283 24.6472 35.4258 24.7452C35.4235 24.8373 35.4512 24.921 35.5476 24.9355C36.1094 25.0191 36.6643 25.0755 37.1352 24.6406C37.3327 24.4583 37.5769 24.3385 37.829 24.2462C38.0181 24.177 38.0754 24.2239 38.0955 24.4255C38.1119 24.5907 38.0288 24.7186 37.941 24.8445C37.7867 25.0665 37.6301 25.2868 37.4758 25.5088C36.9537 26.2589 36.3478 26.8899 35.3695 26.9949C35.313 27.0009 35.2563 27.0125 35.2019 27.0287C35.1497 27.0443 35.0897 27.0492 35.084 27.1306C35.0777 27.2207 35.1397 27.2391 35.1998 27.2553C35.2467 27.268 35.2926 27.2806 35.3464 27.2792C35.8259 27.2679 36.2748 27.1433 36.7054 26.9391C36.7877 26.9 36.865 26.8328 36.9889 26.8654C36.8096 27.0457 36.6565 27.2377 36.4669 27.3817C36.1733 27.6044 35.9246 27.8773 35.6266 28.0932C35.2962 28.3326 35.0062 28.6237 34.6612 28.8449C34.1569 29.1681 33.6349 29.4606 33.1003 29.7295C32.8173 29.8717 32.5195 29.9849 32.2281 30.1102C32.1703 30.135 32.0917 30.1742 32.0696 30.0842C32.0334 29.9368 31.9264 29.9925 31.8807 30.0314C31.7094 30.1777 31.4968 30.2267 31.2997 30.3136C30.8748 30.5007 30.4751 30.7402 30.0438 30.9168C29.8109 31.012 29.5886 31.1387 29.3733 31.2703C29.009 31.4931 28.6891 31.7791 28.3674 32.055C28.0164 32.356 27.6525 32.6604 27.4173 33.0699C27.1375 33.557 26.7757 33.9709 26.3663 34.3505C25.0923 35.5311 23.3035 35.5487 21.9958 34.6753C21.3918 34.2719 20.9696 33.7017 20.5803 33.0998C20.2774 32.6317 19.9092 32.2162 19.4612 31.8771C19.0075 31.5335 18.5627 31.179 18.0643 30.8973C17.8851 30.796 17.6824 30.7508 17.513 30.6339C17.6145 30.7201 17.6904 30.7541 17.7424 30.7692C17.761 30.7745 17.8138 30.7887 17.8245 30.8233C17.8286 30.8366 17.8271 30.8533 17.8163 30.8736C17.7866 30.9303 17.7401 30.8924 17.7008 30.8759C17.6073 30.8368 17.5146 30.7958 17.4204 30.7594C16.4024 30.3658 15.3678 30.0162 14.3967 29.5054C13.5798 29.0756 12.8236 28.5633 12.1154 27.9757C11.9028 27.7995 11.7478 27.5698 11.5526 27.377C11.4762 27.3015 11.283 27.26 11.3459 27.149C11.3987 27.0559 11.5794 27.1224 11.7026 27.1497C12.0205 27.2203 12.3395 27.2868 12.668 27.2706C12.7378 27.2671 12.8391 27.2933 12.8494 27.1804C12.8586 27.0782 12.7792 27.0393 12.6938 27.0172C12.4746 26.9607 12.261 26.8922 12.0346 26.8508C11.7114 26.7917 11.394 26.6196 11.1643 26.3529C10.7001 25.8142 10.3653 25.1893 9.99983 24.5851C9.96151 24.5217 9.96248 24.4519 9.95896 24.3817C9.95193 24.2438 10.0161 24.2049 10.1342 24.2624C10.3113 24.3488 10.4801 24.4536 10.6608 24.5313C10.8006 24.5913 10.9548 24.6191 11.0861 24.701C11.5026 24.9611 11.9585 25.0827 12.4464 25.0901C12.595 25.0925 12.7884 25.1226 12.8103 24.9173C12.8322 24.7123 12.6281 24.7165 12.4945 24.6893C11.8395 24.5557 11.185 24.4282 10.5554 24.1893C10.1404 24.0319 9.83128 23.7786 9.62479 23.3711C9.68306 23.3782 9.72608 23.3827 9.76871 23.3889C11.0387 23.5737 12.1635 23.2755 13.1388 22.4179C13.6799 21.9421 14.1382 21.396 14.5725 20.8307C15.2375 19.9648 15.8993 19.1013 16.671 18.3223C17.4999 17.486 18.574 16.3167 20.3089 15.6646C20.4843 15.5987 20.6546 15.5443 20.8223 15.4948C21.8655 15.2527 22.7617 15.1653 23.4271 15.1372C24.4291 15.0947 25.556 15.0472 26.9365 15.4737C27.2466 15.5695 28.0774 15.8462 29.0166 16.4293C29.5848 16.7821 29.9851 17.1295 30.3576 17.4287C30.8545 17.8276 31.3031 18.2705 31.7317 18.7316C32.1869 19.221 32.6153 19.7376 33.0127 20.2785C33.3674 20.7613 33.6923 21.2712 34.1176 21.6952C34.8454 22.4206 35.6241 23.0739 36.6608 23.3326C36.9487 23.4044 37.2285 23.4763 37.5288 23.475C37.7322 23.474 37.9318 23.4392 38.1342 23.4408C38.1757 23.4411 38.2271 23.414 38.2556 23.463C38.2861 23.5156 38.2513 23.5667 38.222 23.6019V23.6013Z" fill="#263D88"/>
<path d="M30.8284 24.4853C30.7843 24.6072 30.8435 24.7094 30.8609 24.8123C30.9593 25.3924 30.7463 25.8876 30.4458 26.3543C30.0764 26.9276 29.4988 27.1112 28.858 27.1462C28.2567 27.1791 27.8488 26.8551 27.5232 26.3926C27.3357 26.1263 27.1775 25.8455 27.0899 25.48C26.9278 25.79 26.8346 26.0792 26.7569 26.3735C26.5979 26.9767 26.4972 27.5913 26.4126 28.2086C26.3236 28.8576 26.2176 29.5048 26.1478 30.1558C26.096 30.6388 26.0886 31.13 25.9779 31.602C25.9196 31.8507 25.9585 32.0541 26.0405 32.2744C26.0995 32.4332 26.1044 32.611 26.0471 32.7629C25.7659 33.5093 25.2763 34.0709 24.4981 34.3098C23.797 34.5251 23.1762 34.3102 22.6475 33.8288C22.4077 33.6106 22.1833 33.3773 22.0149 33.0895C21.8458 32.8003 21.7935 32.5105 21.9207 32.2066C22.0368 31.9287 21.9205 31.662 21.9156 31.3912C21.9124 31.2146 21.886 31.0345 21.8589 30.8591C21.8254 30.6442 21.8 30.4246 21.7885 30.2127C21.7732 29.9333 21.7181 29.6595 21.6962 29.382C21.6684 29.0285 21.632 28.672 21.5755 28.3197C21.4457 27.5095 21.334 26.6955 21.0458 25.9202C21.0067 25.8148 20.9825 25.703 20.8997 25.6038C20.7766 25.7393 20.7417 25.911 20.6723 26.0635C20.212 27.0741 18.9238 27.4462 18.0249 26.8087C17.5973 26.5055 17.3026 26.0825 17.1565 25.5794C17.0605 25.2491 17.0633 24.9038 17.1853 24.569C17.0492 24.5368 16.9334 24.5561 16.813 24.6162C16.3355 24.8541 15.8998 24.7427 15.4997 24.431C15.3155 24.2875 15.2557 24.0817 15.3222 23.8989C15.3982 23.6903 15.4682 23.6527 15.6749 23.7362C15.867 23.8139 16.0535 23.8997 16.2647 23.921C16.5077 23.9456 16.7332 23.9148 16.9381 23.7742C17.2111 23.5868 17.4672 23.3735 17.7651 23.2239C18.4835 22.8628 19.2073 22.8461 19.9308 23.2061C20.5141 23.4963 20.9379 23.9588 21.2822 24.4979C21.765 25.2538 22.0346 26.0923 22.1901 26.9677C22.3021 27.5991 22.4195 28.2305 22.4791 28.8699C22.5264 29.3771 22.573 29.8844 22.615 30.392C22.6365 30.6523 22.649 30.9133 22.6623 31.1741C22.6674 31.2754 22.6838 31.33 22.8082 31.2792C23.5565 30.9735 24.3162 31.0339 25.0735 31.2357C25.228 31.277 25.2554 31.2443 25.2681 31.0991C25.3373 30.306 25.3925 29.5107 25.4975 28.7221C25.6414 27.6396 25.7718 26.5487 26.1496 25.5158C26.4931 24.5765 27.0068 23.7397 27.9112 23.236C28.6525 22.8233 29.4221 22.8268 30.1706 23.2437C30.4033 23.3733 30.6177 23.5368 30.838 23.6881C31.2254 23.9543 31.629 24.0235 32.0609 23.801C32.1004 23.7806 32.1442 23.7687 32.1843 23.7495C32.3085 23.6903 32.4368 23.6735 32.533 23.7845C32.6307 23.8974 32.6356 24.0293 32.566 24.1705C32.3677 24.5718 31.8122 24.8219 31.3605 24.6916C31.1804 24.6398 31.0093 24.5567 30.8288 24.4857L30.8284 24.4853ZM23.9167 31.8014C23.8231 31.81 23.6815 31.8126 23.5442 31.8382C23.376 31.8695 23.2071 31.9072 23.0628 32.0097C22.8706 32.1462 22.8606 32.2899 23.0393 32.443C23.1531 32.5404 23.2884 32.5928 23.4396 32.5977C23.765 32.6084 24.0904 32.5987 24.4159 32.6223C24.5798 32.6342 24.747 32.6096 24.8923 32.5154C25.1496 32.3482 25.1416 32.1395 24.8702 31.9952C24.5868 31.8445 24.2767 31.8149 23.9165 31.8014H23.9167ZM29.0438 25.2079C29.419 25.209 29.6665 24.9648 29.6699 24.5901C29.6724 24.2921 29.3867 23.9785 29.0958 23.9865C28.7948 23.9949 28.4757 24.1916 28.4781 24.5986C28.48 24.9449 28.719 25.2069 29.0436 25.2079H29.0438ZM18.5521 24.6293C18.5548 24.9576 18.8382 25.2462 19.1551 25.2432C19.467 25.2403 19.7371 24.9321 19.7333 24.5833C19.73 24.2785 19.5083 24.0258 19.2465 24.0289C18.8372 24.0338 18.5494 24.2828 18.5521 24.6293Z" fill="#263D88"/>
<path d="M19.5511 19.9287C19.656 19.9416 19.7516 19.9741 19.8417 20.0237C20.312 20.2832 20.7056 20.6309 21.0267 21.0599C21.0752 21.1248 21.1125 21.2019 21.1389 21.2789C21.198 21.4514 21.1252 21.6383 20.9823 21.7069C20.7832 21.8026 20.5726 21.765 20.4782 21.5884C20.2621 21.1851 19.9221 20.9142 19.5484 20.6743C19.4516 20.6121 19.3603 20.5443 19.2856 20.4545C19.2015 20.3536 19.1943 20.2455 19.2537 20.1356C19.3171 20.0183 19.4106 19.9359 19.5511 19.9287Z" fill="#263D88"/>
<path d="M27.2818 21.7607C26.9787 21.7599 26.8041 21.493 26.9341 21.2077C27.1246 20.7906 27.457 20.4919 27.808 20.2132C27.9525 20.0986 28.1029 19.9907 28.2908 19.953C28.4746 19.916 28.6545 19.9938 28.7261 20.1446C28.8101 20.3214 28.7089 20.4334 28.5874 20.5372C28.5487 20.5703 28.5086 20.6029 28.465 20.6287C28.0605 20.8679 27.7544 21.2007 27.5161 21.6025C27.422 21.7609 27.4083 21.7609 27.2816 21.7605L27.2818 21.7607Z" fill="#263D88"/>
<path d="M22.6844 19.3885C22.4257 19.3875 22.1932 19.1461 22.1953 18.8805C22.1971 18.6764 22.3533 18.5072 22.5406 18.5068C22.7773 18.5063 23.0735 18.7945 23.071 19.0231C23.0688 19.2198 22.8895 19.3893 22.6842 19.3885H22.6844Z" fill="#263D88"/>
<path d="M23.6494 18.1132C23.6479 17.8516 23.8 17.6324 23.9865 17.6271C24.1991 17.621 24.3964 17.8447 24.3954 18.0905C24.3944 18.3402 24.2427 18.5428 24.0556 18.5442C23.8166 18.5459 23.6508 18.3699 23.6494 18.1132Z" fill="#263D88"/>
<path d="M24.9512 18.9945C24.9541 18.7621 25.1804 18.4633 25.3495 18.4693C25.5183 18.4752 25.7527 18.7022 25.7572 18.8641C25.7633 19.0765 25.5218 19.3758 25.3462 19.3735C25.1305 19.3708 24.9487 19.1963 24.9512 18.9947V18.9945Z" fill="#263D88"/>
<path d="M24.0623 20.2709C23.8666 20.2738 23.6734 20.1334 23.6673 19.984C23.6589 19.7736 23.8064 19.6178 24.0156 19.6162C24.2426 19.6145 24.3717 19.7302 24.3789 19.942C24.3852 20.1266 24.2491 20.2682 24.0621 20.2709H24.0623Z" fill="#263D88"/>
<path d="M17.3231 30.5405C17.3018 30.5319 17.2805 30.5233 17.2592 30.5146L17.2578 30.518C17.2791 30.5266 17.3002 30.5354 17.3216 30.544C17.3221 30.5428 17.3225 30.5416 17.3231 30.5403V30.5405Z" fill="#263D88"/>
<path d="M37.1801 25.6299L37.1748 25.6362L37.1805 25.6317L37.1801 25.6299Z" fill="#263D88"/>
<path d="M37.0645 25.7102C37.0672 25.7082 37.0699 25.7061 37.0727 25.7041C37.0684 25.7072 37.0641 25.7106 37.0596 25.7137L37.0645 25.7102Z" fill="#263D88"/>
<path d="M37.0596 25.7137L37.0613 25.7061C37.0613 25.7061 37.0655 25.7094 37.0649 25.7098C37.0643 25.7102 37.0596 25.7137 37.0596 25.7137Z" fill="#263D88"/>
<path d="M37.2178 25.5857C37.2426 25.5933 37.2559 25.5837 37.2584 25.5583L37.2598 25.5554C37.2352 25.5476 37.2219 25.5572 37.2189 25.5824L37.2178 25.5855V25.5857Z" fill="#263D88"/>
<path d="M17.52 30.6365L17.5149 30.6444C17.5149 30.6444 17.5143 30.634 17.5137 30.6338C17.5131 30.6338 17.5198 30.6365 17.5198 30.6365H17.52Z" fill="#263D88"/>
<path d="M37.2949 25.5098L37.3026 25.5029L37.2955 25.5069L37.2949 25.5098Z" fill="#263D88"/>
<path d="M37.258 25.5586C37.2901 25.5578 37.3061 25.5445 37.2949 25.5103L37.2953 25.5073C37.2625 25.5077 37.2468 25.521 37.259 25.5556L37.2578 25.5588L37.258 25.5586Z" fill="#263D88"/>
<path d="M37.1804 25.6316C37.2147 25.6343 37.2291 25.6206 37.2176 25.5858C37.2176 25.5858 37.2186 25.5827 37.2186 25.5825C37.1873 25.5831 37.1715 25.5966 37.1801 25.6298L37.1804 25.6316Z" fill="#263D88"/>
<path d="M10.9678 13.5695C10.9705 13.5462 10.9734 13.5228 10.9762 13.4995C10.9817 13.5054 10.9926 13.512 10.9918 13.5169C10.9885 13.5361 11.0065 13.5693 10.9639 13.5662L10.9678 13.5695Z" fill="#EBEBEA"/>
<path d="M19.0889 36.5434C19.1016 36.5293 19.1108 36.5313 19.1139 36.5497C19.1147 36.5544 19.1088 36.5602 19.1061 36.5657C19.1014 36.5569 19.0969 36.5481 19.0922 36.5393L19.0889 36.5434Z" fill="#EBEBEA"/>
<path d="M23.9171 31.8013C24.2773 31.8148 24.5872 31.8443 24.8707 31.995C25.142 32.1394 25.1502 32.348 24.8928 32.5152C24.7476 32.6094 24.5804 32.6341 24.4165 32.6221C24.0909 32.5985 23.7656 32.6083 23.4402 32.5975C23.289 32.5926 23.1537 32.5402 23.0399 32.4428C22.861 32.2897 22.871 32.1462 23.0634 32.0095C23.2077 31.9071 23.3768 31.8693 23.5448 31.838C23.6821 31.8124 23.8236 31.8099 23.9173 31.8013H23.9171Z" fill="#EBEBEA"/>
<path d="M29.044 25.2078C28.7194 25.2068 28.4805 24.9448 28.4785 24.5985C28.4762 24.1916 28.7951 23.9949 29.0962 23.9865C29.387 23.9783 29.6729 24.2921 29.6703 24.5901C29.667 24.9648 29.4195 25.209 29.0442 25.2078H29.044Z" fill="#EBEBEA"/>
<path d="M18.5528 24.6291C18.55 24.2825 18.8378 24.0335 19.2471 24.0288C19.5089 24.0257 19.7309 24.2783 19.734 24.5832C19.7377 24.932 19.4677 25.2402 19.1558 25.2431C18.8388 25.2461 18.5553 24.9577 18.5528 24.6291Z" fill="#EBEBEA"/>
</svg>
