<svg fill="none" height="48" viewBox="0 0 48 48" width="48" xmlns="http://www.w3.org/2000/svg"><path d="m24.0001 48.0002c13.2549 0 24.0001-10.7452 24.0001-24.0001s-10.7452-24.0001-24.0001-24.0001-24.0001 10.7452-24.0001 24.0001 10.7452 24.0001 24.0001 24.0001z" fill="#fff"/><path d="m23.9998 47.2433c12.8367 0 23.243-10.4063 23.243-23.243s-10.4063-23.242976-23.243-23.242976-23.242964 10.406276-23.242964 23.242976 10.406264 23.243 23.242964 23.243z" fill="#e85a24"/><path d="m24.0001 46.1888c12.2545 0 22.1887-9.9342 22.1887-22.1887 0-12.2544-9.9342-22.18858-22.1887-22.18858-12.2544 0-22.18858 9.93418-22.18858 22.18858 0 12.2545 9.93418 22.1887 22.18858 22.1887z" fill="#f8fbfd"/><path d="m42.3663 24.2357c-.0859 2.9376-.5976 5.9159-2.106 8.6548-.7137 1.2956-1.6167 2.4319-2.8365 3.2941-1.6292 1.1515-3.4254 1.3515-5.3206.9028-.3105-.0736-.4292.0031-.5765.2606-.875 1.5313-1.9579 2.8827-3.4735 3.8341-1.4226.8933-2.9857 1.2898-4.6519 1.1506-2.1547-.1801-3.9258-1.157-5.3574-2.7665-.6269-.7047-1.1668-1.4712-1.6239-2.2946-.0908-.1633-.1786-.2009-.3645-.1664-1.4363.2657-2.8651.347-4.2538-.2433-1.447-.6154-2.53496-1.6543-3.41567-2.926-1.20863-1.7452-1.92176-3.6967-2.32789-5.7659-.29703-1.5137-.47771-3.0438-.41025-4.5883.13571-3.1019.74364-6.0823 2.38832-8.7751.70961-1.1619 1.59247-2.1642 2.73969-2.919 1.5833-1.0416 3.306-1.1779 5.104-.777.2438.0543.334-.01.4429-.2079.8502-1.54359 1.8979-2.92254 3.3746-3.92761 1.4777-1.00566 3.1229-1.45344 4.8947-1.30894 2.1551.17599 3.9255 1.15662 5.3576 2.76551.6924.77786 1.2726 1.63314 1.7677 2.54694.0698.1286.121.2123.3035.1668 3.05-.7613 5.4322.2982 7.2897 2.7195 1.4002 1.8256 2.1777 3.9276 2.6263 6.1617.269 1.3404.4078 2.697.4294 4.2089zm-26.6626 11.6489c-.2636-.5851-.5025-1.1637-.7108-1.7542-.8717-2.4706-1.3342-5.0218-1.5258-7.6297-.1793-2.4417-.0983-4.8737.2419-7.2966.2452-1.7469.6291-3.463 1.2166-5.1292.063-.1785.0573-.2671-.1495-.3304-.4205-.1287-.8413-.2276-1.283-.1768-1.1259.1292-1.8386.8119-2.2931 1.7861-1.0502 2.2516-1.58598 4.6379-1.77644 7.1057-.14118 1.8306-.06022 3.6544.22624 5.4684.32851 2.0813.9445 4.0637 2.0373 5.8803.3102.5156.658 1.0019 1.0898 1.4258.8339.8192 1.8214.9326 2.9272.6508zm18.9214-11.9083c-.0165 1.5492-.1043 3.093-.3151 4.6295-.2544 1.8547-.6597 3.6727-1.2813 5.4399-.0489.1393-.0616.2278.1087.2859.5125.175 1.034.2574 1.57.1566 1.0133-.1902 1.6933-.8118 2.1325-1.7127 1.071-2.1965 1.5508-4.5437 1.7345-6.9614.1198-1.5768.0799-3.1521-.1117-4.7222-.2141-1.7542-.6093-3.4629-1.3232-5.0862-.4629-1.0522-1.0293-2.0385-1.8934-2.8238-.7137-.6486-1.5375-.945-2.5057-.7964-.1953.0299-.3371.0539-.2016.3109.1211.2293.2038.4794.2957.7233 1.2816 3.4026 1.7565 6.942 1.7907 10.5566zm-10.1407-3.7546c.3688-.7999.7063-1.5702 1.0756-2.3248.9093-1.8578 1.9306-3.6427 3.4558-5.0822.1056-.0997.104-.1782.0499-.3017-.5227-1.1917-1.1359-2.3305-1.955-3.34787-.6054-.75204-1.2908-1.41101-2.1611-1.86075-.6441-.33281-1.2689-.33418-1.9104.00293-.5106.26809-.968.60344-1.3794 1.00332-1.1787 1.14586-1.9784 2.54197-2.6556 4.02027-.0641.14-.0164.2036.0911.2828 1.5702 1.1564 2.7491 2.654 3.7425 4.3112.6268 1.0456 1.1597 2.1392 1.6466 3.2968zm-.6963 7.5803c-.0777.0131-.073.0584-.0849.0915-.4202 1.1644-.8756 2.3146-1.4257 3.4247-.7995 1.6136-1.7258 3.1372-3.1311 4.3102-.1152.0962-.0781.1721-.0311.2734.482 1.0389 1.0414 2.0322 1.7628 2.9257.6562.8126 1.3922 1.5349 2.372 1.9554.3604.1546.7325.2393 1.1291.1247.7859-.227 1.4182-.6969 1.9902-1.2565 1.1241-1.0997 1.8985-2.4339 2.5571-3.8453.075-.1609-.0071-.2216-.1121-.3019-.6099-.466-1.156-.9994-1.6548-1.5819-1.3115-1.5311-2.2374-3.2867-2.9898-5.1425-.1322-.3262-.2562-.6557-.3815-.9779zm-6.0964-11.6905c-1.324 6.0163-1.2364 11.8923.59 17.7616.0733-.0773.1044-.1015.1245-.1326.2007-.3078.4126-.6091.5966-.9265 1.3893-2.3949 2.3311-4.9835 3.2657-7.575.036-.0999.0264-.1832-.0094-.2782-.9675-2.5839-2.048-5.1139-3.5486-7.4434-.2976-.4621-.6101-.9138-1.019-1.4057zm12.1383-1.6304c-.084.1099-.123.1527-.1529.201-.2282.3703-.471.7327-.6791 1.1142-1.2065 2.2133-2.087 4.5681-2.9894 6.9134-.0508.1322-.019.2421.0192.3636.3189 1.0134.6664 2.0171 1.0577 3.0048.7817 1.974 1.6708 3.8932 2.9397 5.6122.0647.0876.1032.208.2599.2501 1.3214-5.8388 1.2577-11.628-.4551-17.4593z" fill="#d2d5db"/><path d="m15.6826 35.8357c-1.1019.281-2.0858.1678-2.9171-.6484-.4301-.4225-.7768-.9071-1.0858-1.421-1.0891-1.8103-1.70294-3.7856-2.03028-5.8599-.28529-1.8077-.36604-3.6253-.22545-5.4495.18967-2.4591.72373-4.8372 1.77043-7.081.4528-.9707 1.1632-1.651 2.2852-1.7798.4404-.0507.8596.0479 1.2787.1761.2063.0632.2119.1514.1492.3293-.5857 1.6604-.9681 3.3705-1.2126 5.1114-.339 2.4145-.4198 4.8379-.2411 7.2714.1909 2.5987.6518 5.1411 1.5206 7.6033.2076.5886.4458 1.165.7084 1.7481z" fill="#f8fbfd"/><path d="m34.6263 23.9679c-.0344-3.6143-.5092-7.1538-1.7908-10.5562-.0919-.2438-.1746-.4939-.2956-.7233-.1355-.2569.0062-.281.2016-.3109.9681-.1486 1.7919.1477 2.5056.7965.8641.7852 1.4306 1.7717 1.8934 2.8237.7139 1.6234 1.1091 3.332 1.3232 5.0862.1917 1.5704.2314 3.1454.1117 4.7223-.1836 2.4176-.6637 4.7649-1.7345 6.9614-.4391.9008-1.1192 1.5226-2.1325 1.7127-.536.1005-1.0575.0182-1.57-.1566-.1705-.0583-.1578-.1467-.1087-.2859.6216-1.7673 1.027-3.5854 1.2814-5.4399.2108-1.5366.2986-3.0803.315-4.6298z" fill="#f8fbfd"/><path d="m24.4325 20.2268c-.4854-1.1535-1.0162-2.2432-1.641-3.2852-.99-1.6516-2.1648-3.1439-3.7295-4.2962-.1072-.0788-.1547-.1424-.0907-.2818.6746-1.473 1.4718-2.86446 2.6464-4.00641.4098-.39851.8658-.73269 1.3746-.99999.6394-.33593 1.262-.33437 1.9038-.00293.8674.44817 1.5504 1.1048 2.1537 1.8543.8161 1.01383 1.4274 2.14873 1.9483 3.33633.054.1231.0556.2012-.0496.3005-1.52 1.4345-2.5378 3.2131-3.4439 5.0647-.368.752-.7043 1.5197-1.0719 2.3167z" fill="#f8fbfd"/><path d="m23.7393 27.7812c.1249.321.2485.6493.3803.9743.7499 1.8496 1.6727 3.5989 2.9794 5.1247.4971.5804 1.0413 1.1121 1.649 1.5765.1046.0799.1866.1404.1117.3007-.6563 1.4065-1.4278 2.736-2.5483 3.832-.57.5577-1.2002 1.0258-1.9833 1.252-.3952.1142-.766.0297-1.1252-.1243-.9763-.4189-1.71-1.1389-2.3639-1.9486-.7189-.8903-1.2762-1.8801-1.7567-2.9155-.0469-.1009-.0839-.1768.0309-.2726 1.4005-1.1689 2.3236-2.6875 3.1204-4.2954.5483-1.1061 1.0022-2.2524 1.4208-3.4129.012-.0331.0073-.0782.0847-.0913z" fill="#f8fbfd"/><path d="m17.6636 16.1309c.4075.4904.7188.9405 1.0155 1.401 1.4955 2.3214 2.5723 4.8427 3.5365 7.4178.0354.0948.0452.1777.0092.2773-.9316 2.5824-1.87 5.162-3.2546 7.5487-.1834.3164-.3948.6166-.5946.9234-.0201.0311-.051.0551-.1242.1322-1.8199-5.849-1.9073-11.7048-.5878-17.7002z" fill="#f8fbfd"/><path d="m29.8312 14.4731c1.7127 5.8314 1.7764 11.6207.455 17.4594-.1567-.0423-.1952-.1625-.2599-.2501-1.2689-1.719-2.1578-3.6382-2.9397-5.6122-.3911-.9877-.7388-1.9914-1.0577-3.0049-.0381-.1214-.07-.2313-.0192-.3635.9024-2.3453 1.783-4.7001 2.9894-6.9135.2079-.3815.4508-.7438.6791-1.1141.03-.0485.0689-.0914.153-.2011z" fill="#f8fbfd"/><path d="m24.1582 43.2295h-.3125c.1042.0524.2073.0512.3125 0z" fill="#fff"/><path d="m12.7656 15.4893c.1869.1795.4178.2863.6466.397.4523.2188.9425.3412 1.3997.5483.1623.0735.1769.1967.149.3474-.0286.1543-.1308.1854-.2671.176-.2493-.0168-.4881-.0894-.7323-.1334-.2263-.0408-.4539-.0791-.6842-.0537-.1154.0127-.2388.052-.2603.1855-.0195.1219.073.1993.1731.2486.0844.0416.1754.0739.2667.0981.4288.1142.8574.23 1.289.333.175.0417.2266.1457.2059.3037-.0219.165-.1226.2472-.2894.2386-.1721-.0088-.3438-.0235-.5288-.0364-.1009.0291-.2389-.0778-.3312.0794-.1451.2473-.0939.4249.1777.5172.2165.0735.4291.1533.64.2419.1481.0622.3225.0968.4668-.0301.2587-.2278.4951-.4783.7301-.7304.5315-.57 1.0951-1.1054 1.7265-1.5651.2235-.1627.2266-.1582.0461-.3694-.0041-.0048-.0084-.0097-.0129-.0142-.9112-.902-1.8838-1.7169-3.1079-2.1711-.2442-.0905-.4892-.1844-.7528-.2018-.1664-.0109-.2922.0739-.3418.2227-.047.1406.0749.2137.1807.2722.1491.0825.3025.158.4546.2352.3402.1731.6756.3551.9798.5874.166.1268.1719.2607.0419.424-.1277.1603-.289.115-.4359.0627-.3113-.1106-.6165-.2385-.9231-.3623-.2349-.0948-.4531-.2325-.7122-.2644-.1193-.0146-.2063.0094-.2659.1283-.0624.124-.0125.2038.0717.2847z" fill="#fff"/><path d="m12.915 12.4423c.7024.2747 1.4064.5441 2.0849.877 1.2857.6304 2.4153 1.4597 3.3281 2.5695.0686.0835.1206.0937.2055.0374.3171-.2112.6214-.4423.9624-.6164.08-.0408.0753-.0842.0037-.139-.7702-.5897-1.5985-1.0932-2.4581-1.5334-1.1595-.5937-2.4124-.939-3.6785-1.2286-.1996-.0457-.4028-.1011-.6228-.0815.0378.086.1148.0915.1748.115z" fill="#fff"/><path d="m12.6868 21.7752c.1625-.1612.3381-.3092.5047-.4666.2382-.2253.4519-.4769.7433-.6697-.0751-.0477-.1391-.0872-.202-.1285-.0693-.0454-.1404-.0882-.2054-.139-.7025-.5505-1.2168-1.2532-1.6358-2.0313-.6486-1.2043-.8966-2.5052-.9206-3.8584-.0055-.3089-.0016-.6181-.002-.927-.0105.0041-.025.0072-.0266.0135-.1243.5373-.26 1.0708-.3275 1.6216-.1355 1.1063-.0683 2.1971.174 3.2815.1629.729.5047 1.3788.8663 2.0235.2469.4403.4947.8764.8504 1.2403.0485.0496.0872.1335.1812.0403z" fill="#fff"/><path d="m25.139 41.011c.0139-.0328.0645-.0622.0381-.0979-.1904-.2582-.0512-.483.0731-.7028.4216-.7446.7756-1.516.9774-2.3516.0283-.1177.0948-.2205.1628-.3216.1013-.1504.2233-.1484.36-.0589.2165.142.23.3569.1866.5776-.1201.6103-.3796 1.1688-.6623 1.7175-.0909.1765-.2366.3253-.2836.5289.0773.0205.1047-.0354.1336-.0685.5014-.5686 1.007-1.1339 1.4384-1.7594.0655-.095.113-.1967.1171-.3178.0074-.2174.0544-.4286.1392-.6288.298-.7028.4527-1.4409.5476-2.194.0125-.0989-.0151-.2176.0991-.2675.1163-.0508.2202.0075.3195.0726.2374.1552.2358.3928.2143.6304-.0209.2307-.0612.4599-.0942.6996.5754-.2972 2.3329-4.3822 2.2414-5.1931-.6267.29-1.2106.647-1.78 1.0283-.4114.2756-.771.6158-1.0582 1.0147-.4441.6169-.896 1.2206-1.4836 1.7133-1.3357 1.1203-3.0226 1.4081-4.6208.669-.9491-.439-1.7066-1.1203-2.2524-2.0098-.7473-1.2182-1.8666-1.9341-3.1699-2.4339.0088.072.0092.1426.0268.2085.281 1.0512.6193 2.0819 1.1226 3.0512.2779.5352.5622 1.0672.849 1.5977.082.1514.15.318.3145.4075.0301-.0692-.0108-.1304-.0241-.1947-.0786-.3802-.0809-.7578.0333-1.1326.0379-.1246.1312-.1811.2473-.2032.1023-.0193.1695.0571.2231.1226.0516.0634.0518.1537.0528.2378.0045.3764.0673.7427.168 1.1064.1285.4628.2769.9212.361 1.3949.0285.1616.0932.2994.1804.4341.2709.4175.578.8057.9181 1.1696.3367.3601.6648.7284 1.0121 1.1098.0113-.1012-.0422-.1452-.0735-.1961-.3397-.5518-.678-1.104-.9325-1.7027-.1268-.2982-.2026-.6035-.1709-.9279.0134-.1382.0684-.2663.2141-.3103.1423-.043.2409.0415.3238.1482.0555.0716.0888.152.1175.237.2233.6623.4585 1.3189.8074 1.9298.2049.3588.3744.7362.5336 1.1175.0241.0577.0653.131.0481.1789-.0745.2075.0597.3274.176.4484.1457.1515.3056.2896.4609.4317.2227.2038.2229.2028.4487.0178.0542-.0443.1162-.0799.1668-.1278.2662-.2519.6-.4404.7521-.8002z" fill="#fff"/><path d="m37.3687 17.3804c.0884-.7685.077-1.5414-.035-2.3084-.0694-.4751-.1572-.9477-.309-1.4104 0 .0755.0032.1512-.0004.2265-.0383.7888-.0395 1.5789-.1789 2.3617-.2276 1.2786-.7591 2.4045-1.6161 3.3822-.2714.3096-.5821.571-.8966.8311-.192.1587-.2.167-.0158.3429.3133.2994.6396.5853.9564.8811.0852.0796.1277.0519.1963-.0256.3747-.4231.6341-.918.9243-1.3977.5411-.8944.8569-1.856.9752-2.8836z" fill="#fff"/><path d="m34.321 18.3879c-.0526-.1394-.1281-.2495-.3082-.2217-.0941.0145-.1911.0111-.2939.016-.1516-.009-.3111.0192-.4687-.0254-.1265-.0358-.203-.1091-.1971-.2436.0058-.1361.0207-.2664.1961-.3029.2112-.044.4214-.0958.6289-.1549.3228-.0921.6581-.1459.9618-.2994.0806-.0406.1604-.088.1611-.1936.001-.1159-.0876-.1603-.1746-.2033-.1415-.0704-.2837-.0438-.4278-.0063-.3446.0894-.6823.2096-1.0399.2417-.1592.0143-.2982-.0238-.349-.1947-.0518-.1739.0152-.2857.216-.3659.3064-.1226.615-.2397.9238-.3563.3944-.1488.7729-.3259 1.0973-.6016.0974-.0828.1398-.1813.0712-.3029-.0706-.125-.1797-.1561-.3105-.1144-.0845.027-.1676.0598-.2485.0964-.3589.1621-.7161.3275-1.0747.4898-.1739.0786-.3479.1611-.5479.1302-.1572-.0242-.2482-.0997-.2532-.2757-.0053-.1818.0967-.2757.2319-.3619.4294-.2744.9-.473 1.3369-.7333.104-.062.2094-.1369.1761-.2634-.0373-.1417-.1486-.237-.3087-.2417-.0565-.0017-.1144.008-.1701.0198-.3373.0706-.6629.1805-.9822.3074-.7329.2913-1.3494.7622-1.9361 1.2753-.3122.2729-.6085.5629-.8611.8942-.0628.0823-.088.1382.0324.2168.3743.2443.7022.5489 1.0301.8512.4832.4453.9416.9147 1.3723 1.411.0366.0423.1002.1482.1359.0886.0798-.133.1549-.0436.2183-.0182.129.0518.2612.0511.3695-.0113.2042-.1177.4332-.1817.6314-.3066.0835-.0526.2177-.0896.1613-.2388z" fill="#fff"/><path d="m31.4261 14.2367c.906-.6838 1.9402-1.1275 2.9771-1.5649.2904-.1224.6013-.1957.8702-.3705-2.5526.3627-4.833 1.3435-6.833 3.0029.3876.1492.7139.3793 1.0356.6169.077.0569.1408.0633.2122-.0203.1198-.1404.2542-.2685.3777-.4058.415-.4611.8655-.8848 1.3602-1.2581z" fill="#fff"/><path d="m37.065 25.6973-.0005.0004s.0001-.0002.0002-.0003z" fill="#fff"/><path d="m17.5195 30.6179c.0018.0012.0038.0021.0055.0033l.0006-.001-.0061-.0025z" fill="#fff"/><path d="m37.2645 25.5391c0 .0001-.0008.0019-.0008.0019l.0009-.0019z" fill="#fff"/><path d="m37.2229 25.5698s.0009-.0032.0009-.0034l-.0011.0032z" fill="#fff"/><path d="m19.0938 36.5271c.0013-.0016.0025-.0022.0039-.0034 0-.0002-.0004-.0006-.0004-.0008l-.0034.0042z" fill="#fff"/><path d="m19.4669 31.8607c.368.3311.648.4949 1.119 1.2227.3896.6019.8115 1.1721 1.4156 1.5755 1.3077.8735 3.0965.8559 4.3705-.3248.4094-.3796.7712-.7935 1.051-1.2806.2352-.4096.5989-.7139.9501-1.0148.3217-.2759.6416-.562 1.0059-.7847.2152-.1316.4376-.2582.6705-.3536.4313-.1765.8308-.4159 1.2559-.6032.1971-.0868.4095-.1359.581-.2822.0457-.0391.1527-.0948.1888.0528.0221.09.1006.0511.1584.026.2916-.1253.5892-.2383.8721-.3807.5346-.2687 1.0569-.5614 1.561-.8846.3448-.2212.6349-.5123.9654-.7517.298-.2156.5467-.4888.8402-.7115.1897-.1439.343-.3362.5223-.5163-.1239-.0326-.2014.0347-.2835.0738-.4306.2043-.8795.3289-1.359.34-.0538.0012-.0999-.0111-.1467-.0238-.0602-.0163-.122-.0347-.1159-.1248.0057-.0813.0657-.0862.1179-.1019.0544-.0162.1111-.0277.1676-.0338.9783-.105 1.584-.7362 2.1063-1.4861.1545-.2219.3109-.4423.4654-.6643.0876-.1259.1709-.2538.1543-.419-.0202-.2018-.0774-.2487-.2665-.1793-.2521.0925-.4965.2122-.694.3944-.4709.4349-1.026.3786-1.5876.2949-.0966-.0145-.1242-.0982-.1218-.1903.0025-.098.0721-.1054.1451-.1146.3664-.0461.7342-.0846 1.0985-.1435.3408-.0549.6572-.2.9674-.341.245-.1115.4133-.3381.5852-.5448.0293-.0352.0643-.0862.0336-.1388-.0285-.0491-.0799-.0219-.1214-.0223-.2024-.0018-.402.033-.6054.0342-.3001.0016-.58-.0704-.868-.1422-1.0367-.2587-1.8152-.9119-2.5432-1.6374-.4253-.4239-.7502-.9339-1.105-1.4167-.3971-.5406-.8255-1.0573-1.2807-1.5469-.4289-.4611-.8772-.904-1.3741-1.3029-.4362-.3502-.8625-.727-1.3412-.9994-.8588-.4886-1.701-1.033-2.7041-1.2211-.069-.0129-.1609-.036-.27-.0679-1.1363.0055-2.2728.011-3.4091.0165-.076.0068-.1521.0129-.2284.0189-.7235.0569-1.4264.1887-2.0962.4889-1.4029.6286-2.5648 1.5752-3.6378 2.6577-.772.7791-1.4337 1.6426-2.0987 2.5084-.4343.5653-.8928 1.1115-1.4337 1.5872-.9753.8576-2.0999 1.1557-3.3701.9711-.04263-.0063-.08565-.0106-.14392-.0178.20669.4075.51582.6607.93082.8181.6294.239 1.2841.3662 1.9391.4998.1336.0272.3375.0231.3158.228-.0219.2053-.2153.1752-.3639.1729-.4879-.0075-.9439-.1291-1.3604-.3892-.1312-.0819-.2854-.1097-.4251-.1697-.1806-.0776-.3494-.1824-.5265-.2689-.1182-.0574-.18209-.0185-.17525.1193.00352.0702.00254.14.04085.2034.3655.6042.7004 1.2291 1.1645 1.7678.2297.267.5471.4388.8703.4979.2266.0414.44.1099.6592.1664.0854.0221.1648.0608.1556.1633-.0102.1128-.1114.0866-.1813.0901-.3285.0164-.6474-.05-.9653-.1208-.1232-.0274-.3039-.0939-.3567-.0008-.063.1111.1302.1525.2067.228.1951.1928.3504.4225.5628.5987.7084.5876 1.4643 1.0999 2.2813 1.5297.9711.5108 2.0057.8604 3.0236 1.254.0945.0366.1872.0777.2804.1166.029.0121.0554.0178.088.0254.1177.0268.221.0195.2953.0068.3463.187.8494.4946 1.3772.9691zm17.7186-6.2473c-.0086-.0332.0072-.0465.0385-.0473.0027-.0252.016-.0348.0407-.0272-.0124-.0344.0035-.0479.0363-.0483l.0071-.0039-.0075.0067v.0002c.0112.0342-.0048.0473-.0369.0483-.0026.0252-.0159.0348-.0405.0273.0115.0348-.0029.0483-.0371.0458l-.0057.0047.0053-.0063zm-.1189.0763s.0039.0033.0035.0037-.0035.0026-.0045.0033c.0012-.0007.0039-.0029.0039-.0029.0028-.002.0055-.0041.0082-.0061-.0043.0032-.0084.0063-.0127.0092l-.0004.0004.0018-.0076zm-10.127-4.4982c.1905-.4171.5229-.7159.8739-.9945.1445-.1146.2948-.2225.4828-.2603.1838-.0369.3637.0409.4352.1917.0841.1767-.0172.2888-.1386.3926-.0387.0331-.0788.0657-.1224.0915-.4046.2392-.7106.572-.949.9738-.094.1584-.1077.1584-.2344.158-.3029-.0008-.4777-.2677-.3477-.553zm-1.5848-2.7385c.1687.0058.4032.2329.4077.3948.006.2123-.2355.5117-.4111.5094-.2156-.0028-.3975-.1772-.395-.3788.0028-.2325.2292-.5313.3984-.5252zm-1.3631-.842c.2125-.0061.4098.2176.4088.4634-.001.2497-.1525.4523-.3398.4537-.239.0017-.4048-.1743-.4062-.431-.0013-.2616.1506-.4808.3372-.4861zm.3922 2.315c.0063.1846-.1298.3261-.3168.3289-.1957.0029-.3889-.1375-.395-.2869-.0084-.2104.1391-.3662.3483-.3678.227-.0017.3561.114.3633.3258zm-1.8379-1.4351c.2366-.0006.5329.2877.5303.5162-.0021.1968-.1814.3663-.3867.3655-.2587-.001-.4912-.2425-.4891-.508.0018-.2042.158-.3733.3453-.3737zm-3.2868 1.6285c.0634-.1174.1568-.1997.2974-.2069.1048.0129.2005.0454.2906.095.4703.2595.8639.6072 1.185 1.0362.0487.0649.0858.1419.1122.219.0591.1725-.0137.3594-.1566.428-.1991.0956-.4097.0581-.5041-.1185-.2161-.4034-.5561-.6742-.9298-.9141-.0968-.0622-.1881-.1301-.2628-.2198-.0841-.1009-.0913-.209-.0319-.3189zm-2.0973 5.4432c-.0961-.3303-.0933-.6756.0287-1.0104-.1361-.0322-.2519-.0129-.3723.0472-.4775.2379-.9132.1265-1.3132-.1852-.1842-.1435-.2441-.3492-.1776-.5321.0761-.2086.1461-.2462.3528-.1627.192.0777.3785.1635.5897.1848.2431.0247.4685-.0062.6734-.1468.273-.1874.5292-.4007.827-.5503.7184-.3611 1.4423-.3778 2.1658-.0178.5833.2902 1.007.7527 1.3513 1.2918.4828.7559.7525 1.5944.9079 2.4698.1121.6314.2294 1.2628.289 1.9022.0474.5073.0939 1.0145.1359 1.5221.0215.2603.0341.5213.0474.7822.005.1013.0215.1558.1458.105.7484-.3057 1.508-.2452 2.2654-.0434.1544.0412.1818.0086.1945-.1367.0692-.7931.1244-1.5884.2294-2.377.1439-1.0825.2743-2.1734.6521-3.2063.3436-.9393.8573-1.776 1.7616-2.2798.7413-.4127 1.511-.4092 2.2595.0077.2327.1296.447.2931.6673.4444.3874.2662.791.3354 1.223.1129.0395-.0204.0833-.0323.1233-.0515.124-.0592.2525-.076.3487.035.0978.1129.1026.2449.033.386-.1982.4013-.7538.6514-1.2055.5211-.1801-.0518-.3512-.1349-.5316-.2059-.0442.1219.015.2241.0324.327.0984.5801-.1146 1.0753-.4151 1.542-.3694.5733-.947.7569-1.5878.7919-.6013.0329-1.0092-.2911-1.3347-.7536-.1876-.2663-.3458-.5471-.4334-.9126-.1621.31-.2553.5992-.333.8935-.1589.6032-.2596 1.2178-.3443 1.8351-.089.649-.195 1.2962-.2648 1.9472-.0518.483-.0592.9742-.1699 1.4462-.0583.2487-.0193.4521.0626.6725.059.1587.0639.3365.0066.4884-.2812.7464-.7708 1.308-1.549 1.5469-.701.2153-1.3219.0004-1.8506-.481-.2397-.2182-.4642-.4515-.6326-.7393-.1691-.2892-.2213-.579-.0942-.8829.1161-.2779-.0002-.5446-.0051-.8154-.0031-.1766-.0295-.3567-.0567-.5321-.0335-.2149-.0589-.4344-.0704-.6464-.0153-.2794-.0704-.5532-.0923-.8307-.0278-.3535-.0641-.71-.1207-1.0623-.1298-.8101-.2414-1.6242-.5297-2.3995-.0391-.1054-.0633-.2172-.146-.3164-.1232.1355-.158.3072-.2275.4597-.4603 1.0106-1.7485 1.3827-2.6474.7452-.4276-.3032-.7221-.7262-.8683-1.2293z" fill="#e85a24"/><g fill="#263d88"><path d="m38.6551 22.5073c-.8081.225-1.6108.2047-2.4018-.0965-.1326-.0504-.1331-.1005-.0559-.2006.1126-.146.2112-.3029.324-.4489.8885-1.1506 1.456-2.437 1.6689-3.8787.1522-1.03.1252-2.0591.0145-3.0886-.1109-1.0319-.4583-2.0021-.7927-2.9753-.0935-.2718-.2837-.423-.5649-.4789-.2824-.0561-.5622-.0055-.8383.0219-.9441.0941-1.8811.2341-2.7919.5172-.3463.1076-.7153.1529-1.0479.29-.3969.1637-.8015.3131-1.1879.501-.1226.0596-.2583.0735-.3745.1454-.1855.115-.3775.2196-.5635.3342-.4652.2867-.9366.5612-1.3791.8825-.3041.2208-.6418.7184-1.0303.7528-.1428.0127-.2822-.0397-.4171-.088-1.2701-.455-2.6414-.6198-3.9836-.489-.6257.061-1.2258.2188-1.8394.343-.306.0619-.6902.0782-.9775.2119-.0104.0047-.061.0313-.1212.0202-.0385-.0073-.073-.03-.1121-.0671-.2962-.2808-.6144-.5372-.9434-.7771-1.5057-1.0972-3.1989-1.7768-4.9996-2.2059-.5199-.1239-1.0479-.2133-1.5796-.2811-.5025-.0642-1.0033-.1389-1.5111-.1426-.3445-.0025-.55.175-.6247.4787-.0824.3338-.1964.6562-.2949.9836-.2188.7264-.38424 1.4645-.48416 2.2146-.12085.9069-.11479 1.8178-.00685 2.728.10207.8613.31601 1.694.69981 2.4693.3631.7334.7886 1.4348 1.3264 2.0604.0358.0416.0831.0805.0878.1533-.8461.3126-1.7014.3332-2.56531.0813-.28471-.0829-.51955.0108-.61087.2607-.04654.1271-.06296.2602-.04047.3953.14098.8491.42353 1.6461.84316 2.4003.29468.5295.64259 1.025.94719 1.5457.281.4801.6212.8997 1.016 1.2826.9775.9479 2.1124 1.6534 3.3674 2.1716.2528.1044.5108.1973.7696.2859.1447.0495.1993.1332.2192.2886.0622.4848.1792.9631.3244 1.4263.1649.5254.4132 1.024.6125 1.5393.4499 1.1644 1.0876 2.2291 1.7508 3.2784.6729 1.0645 1.501 2.0117 2.3107 2.9716.8756 1.0381 1.9237 1.8995 2.9095 2.8248.209.1961.4078.1761.6225-.0305.1285-.1238.2462-.2595.38-.3772.7952-.7001 1.5807-1.4071 2.2903-2.1993 1.1085-1.2377 2.1302-2.5371 2.9932-3.9587.8881-1.463 1.6153-2.996 2.0402-4.6606.069-.2705.1506-.5425.1255-.8262-.0107-.1222.0296-.1791.1402-.2258.5855-.2474 1.184-.467 1.7319-.7961.7245-.4353 1.5041-.7855 2.1228-1.3826.5911-.5704 1.2278-1.1003 1.6292-1.8385.2036-.3743.4119-.746.6109-1.1226.4325-.8177.7747-1.6693.9597-2.5801.1031-.5071-.2-.7816-.6971-.6432zm-1.8148-6.2413c.1395-.7827.1406-1.5729.179-2.3617.0037-.0753.0005-.151.0005-.2264.1516.4626.2396.9352.309 1.4104.112.7669.1234 1.5399.035 2.3083-.1181 1.0276-.4339 1.9893-.9752 2.8837-.2901.4796-.5496.9745-.9243 1.3977-.0684.0774-.1108.1052-.1963.0256-.3168-.2959-.6431-.5817-.9564-.8811-.1842-.176-.1762-.1842.0161-.343.3146-.2601.6251-.5215.8965-.831.857-.9777 1.3885-2.1038 1.6161-3.3823zm-1.5983-.7743c-.3244.2759-.703.4529-1.0974.6017-.3087.1165-.6175.2336-.9237.3562-.2008.0804-.2679.1923-.2161.3659.0511.1709.1899.209.3491.1948.3578-.0321.6953-.1524 1.0398-.2417.1444-.0374.2863-.064.4281.0062.087.0432.1756.0876.1746.2034-.001.1056-.0808.1529-.1613.1936-.3035.1535-.6388.2074-.9619.2993-.2074.0593-.4175.1111-.6288.1549-.1752.0364-.1901.1668-.1962.3029-.0058.1347.0706.208.1971.2436.1576.0446.3172.0163.4688.0255.1028-.0051.1996-.0018.2936-.0161.1801-.0275.2556.0823.3082.2218.0561.1492-.0778.1861-.1613.2387-.1983.125-.4271.1891-.6314.3066-.1083.0624-.2403.0632-.3696.0114-.0633-.0255-.1384-.1148-.2182.0181-.0358.0597-.0993-.0463-.1359-.0885-.431-.4963-.8893-.9658-1.3725-1.411-.3279-.3023-.6558-.6068-1.0301-.8512-.1204-.0786-.0952-.1346-.0324-.2169.2526-.3312.5488-.6212.8611-.8942.5866-.5129 1.2032-.9839 1.9361-1.2753.3193-.1269.6448-.2368.9821-.3074.0558-.0117.1137-.0215.1702-.0197.1601.0049.2712.0999.3087.2417.0335.1265-.0721.2014-.176.2634-.437.2602-.9077.4591-1.3371.7332-.1349.0863-.237.1803-.2319.3622.0051.176.096.2512.2533.2757.2.0309.374-.0516.5479-.1303.3588-.1622.716-.3277 1.0746-.4898.081-.0365.1641-.0694.2486-.0964.1308-.0416.2399-.0105.3105.1144.0686.1216.0262.2202-.0712.3029zm.0264-3.1746c-.2689.1748-.5798.2482-.8702.3706-1.0367.4374-2.0711.8811-2.977 1.5649-.4948.3734-.9453.797-1.3602 1.2581-.1236.1374-.2579.2653-.3778.4057-.0714.0837-.1351.0772-.2122.0203-.3216-.2375-.648-.4677-1.0355-.6169 1.9999-1.6593 4.2803-2.6402 6.8329-3.0029zm-21.9102.1076c1.2661.2896 2.519.6347 3.6785 1.2285.8596.4402 1.6879.9435 2.4581 1.5335.0714.0547.0763.0981-.0037.139-.341.174-.6453.4051-.9624.6163-.0849.0565-.1369.0462-.2055-.0373-.9128-1.1099-2.0425-1.9392-3.3281-2.5696-.6785-.3328-1.3825-.6025-2.0849-.877-.06-.0235-.137-.0289-.1748-.115.2198-.0195.4232.036.6228.0816zm-.6697 2.7958c.0598-.1187.1468-.143.2661-.1283.2589.0319.4771.1695.712.2644.3066.1238.6118.2516.9231.3623.1467.0522.3082.0976.4359-.0628.13-.1632.1243-.2972-.0419-.4239-.3042-.2321-.6396-.4141-.9798-.5874-.1521-.0774-.3054-.1527-.4546-.2352-.1058-.0585-.2276-.1316-.1807-.2722.0497-.149.1756-.2337.3418-.2227.2636.0174.5086.111.7528.2018 1.2243.4542 2.1969 1.2688 3.1081 2.171.0045.0045.0088.0094.0127.0143.1805.2112.1774.2067-.0461.3694-.6314.4597-1.1952.9951-1.7264 1.5651-.2351.252-.4713.5025-.7302.7303-.1441.1269-.3185.0923-.4667.0301-.211-.0885-.4236-.1683-.64-.2418-.2716-.0923-.3229-.2699-.1778-.5172.0923-.1573.2302-.0503.3311-.0794.1849.0129.3566.0275.5287.0363.1668.0084.2675-.0737.2894-.2385.0207-.1578-.0309-.2619-.2059-.3037-.4316-.103-.8602-.2188-1.289-.333-.0913-.0242-.182-.0565-.2667-.0982-.1003-.0494-.1926-.1267-.1731-.2485.0215-.1335.1449-.1728.2603-.1856.2301-.0254.4578.0129.6842.0538.244.0442.483.1166.7323.1334.1365.0092.2385-.0217.2673-.176.0279-.1508.0133-.274-.149-.3475-.4572-.2071-.9474-.3295-1.3997-.5483-.2288-.1107-.4597-.2174-.6466-.3969-.0843-.081-.1342-.1608-.0718-.2847zm-1.6963-1.7039c-.0031.0181.0113.0481-.0237.0484.0026-.0219.0053-.044.0081-.0659.0054.0059.0164.0126.0156.0175zm.6584 6.9942c-.3616-.6447-.7034-1.2947-.8663-2.0234-.2424-1.0843-.3097-2.175-.174-3.2816.0675-.5508.2032-1.0843.3275-1.6216.0014-.0062.0159-.0094.0266-.0135.0004.309-.0035.6181.002.9271.024 1.3531.272 2.654.9206 3.8583.419.7781.9333 1.4809 1.6359 2.0313.0649.0508.1363.0937.2053.139.0629.0413.1269.081.202.1285-.2914.1928-.5051.4445-.7433.6697-.1664.1574-.342.3055-.5045.4666-.094.0933-.1327.0096-.1812-.0403-.3557-.3639-.6035-.8001-.8502-1.2403zm7.4553 16.0547c-.0043-.0082-.0086-.0164-.0129-.0246.0102-.0084.018-.0072.0207.0088.0008.0047-.0049.0106-.0078.016zm9.7955-.0807c.0331-.2397.0734-.4687.0943-.6996.0215-.2376.0231-.4752-.2143-.6305-.0996-.0651-.2034-.1234-.3195-.0725-.1144.0498-.0869.1685-.0994.2675-.0948.753-.2495 1.4912-.5475 2.1939-.0848.2003-.1318.4114-.1392.6289-.0041.121-.0516.2227-.1169.3177-.4314.6256-.9371 1.1911-1.4384 1.7595-.029.0328-.0563.089-.1338.0684.0472-.2035.1926-.3523.2836-.5289.2827-.5487.5422-1.1069.6623-1.7174.0434-.2208.0299-.4357-.1866-.5776-.1365-.0896-.2585-.0917-.36.0588-.068.1011-.1345.2042-.1629.3217-.2018.8357-.5557 1.6071-.9771 2.3515-.1245.22-.2638.4449-.0733.7028.0264.0358-.0242.0651-.0381.098-.1522.36-.4859.5483-.7521.8001-.0506.0479-.1126.0835-.1668.1279-.2258.185-.226.1862-.4487-.0178-.1553-.1422-.315-.2802-.4609-.4317-.1164-.1211-.2505-.241-.176-.4484.0172-.0479-.0241-.1213-.0481-.1789-.159-.3815-.3287-.7587-.5336-1.1175-.3489-.6107-.5841-1.2675-.8074-1.9298-.0288-.0851-.062-.1656-.1175-.237-.0829-.1066-.1815-.1913-.3238-.1482-.1457.044-.2007.172-.2142.3103-.0316.3244.0442.6296.1709.9278.2546.5988.5929 1.151.9326 1.7028.0313.0508.0848.0948.0735.1961-.3473-.3815-.6754-.7497-1.0121-1.1099-.3399-.3639-.6471-.7518-.9181-1.1695-.0872-.1345-.1519-.2726-.1805-.4341-.0838-.4738-.2325-.9323-.3609-1.395-.1009-.3635-.1635-.7299-.1682-1.1063-.001-.0841-.0012-.1746-.0528-.2378-.0536-.0655-.1208-.142-.2231-.1226-.1163.0221-.2094.0786-.2474.2032-.1141.3748-.112.7524-.0332 1.1325.0133.0644.0534.1254.0237.1944-.1641-.0898-.2323-.256-.3141-.4071-.2868-.5305-.5711-1.0626-.849-1.5978-.5031-.9693-.8416-2-1.1226-3.0512-.0176-.0659-.018-.1363-.0268-.2084 1.3035.4998 2.4226 1.2156 3.1701 2.4339.5458.8895 1.3031 1.5707 2.2524 2.0097 1.5982.7392 3.2849.4513 4.6208-.6689.5876-.4928 1.0397-1.0964 1.4838-1.7133.2872-.3991.6468-.7392 1.0582-1.0147.5694-.3813 1.1533-.7385 1.78-1.0283.0915.8109-1.666 4.8957-2.2415 5.1931zm9.3206-12.8835c-.1719.2067-.3402.4333-.5854.5448-.3102.1409-.6263.2858-.9672.341-.3645.0588-.7323.0974-1.0985.1435-.0729.0092-.1426.0166-.1451.1146-.0023.0921.0254.1758.1218.1903.5618.0836 1.1167.14 1.5876-.2949.1975-.1823.4417-.3021.6938-.3944.1891-.0692.2464-.0223.2665.1793.0164.1652-.0667.2931-.1545.419-.1543.222-.3109.4423-.4652.6643-.5221.7501-1.128 1.3811-2.1063 1.4861-.0565.006-.1132.0176-.1676.0338-.0522.0156-.1122.0205-.1179.1019-.0063.0901.0557.1085.1158.1247.0469.0127.0928.0253.1466.0239.4795-.0113.9284-.1359 1.359-.3401.0823-.0391.1596-.1063.2835-.0737-.1793.1803-.3324.3723-.522.5163-.2936.2227-.5423.4956-.8403.7115-.3304.2394-.6204.5305-.9654.7517-.5043.3232-1.0263.6157-1.5609.8846-.283.1422-.5808.2554-.8722.3807-.0578.0248-.1364.064-.1585-.026-.0362-.1474-.1432-.0917-.1889-.0528-.1713.1463-.3839.1953-.581.2822-.4249.1871-.8246.4266-1.2559.6032-.2329.0952-.4552.2219-.6705.3535-.3643.2228-.6842.5088-1.0059.7847-.351.301-.7149.6054-.9501 1.0149-.2798.4871-.6416.901-1.051 1.2806-1.274 1.1806-3.0628 1.1982-4.3705.3248-.604-.4034-1.0262-.9736-1.4155-1.5755-.3029-.4681-.6711-.8836-1.1191-1.2227-.4537-.3436-.8985-.6981-1.3969-.9798-.1792-.1013-.3819-.1465-.5513-.2634.1015.0862.1774.1202.2294.1353.0186.0053.0714.0195.0821.0541.0041.0133.0026.03-.0082.0503-.0297.0567-.0762.0188-.1155.0023-.0935-.0391-.1862-.0801-.2804-.1165-1.018-.3936-2.0526-.7432-3.0237-1.254-.8169-.4298-1.5731-.9421-2.2813-1.5297-.2126-.1762-.3676-.4059-.5628-.5987-.0764-.0755-.2696-.117-.2067-.228.0528-.0931.2335-.0266.3567.0007.3179.0706.6369.1371.9654.1209.0698-.0035.1711.0227.1814-.0902.0092-.1022-.0702-.1411-.1556-.1632-.2192-.0565-.4328-.125-.6592-.1664-.3232-.0591-.6406-.2312-.8703-.4979-.4642-.5387-.799-1.1636-1.16447-1.7678-.03832-.0634-.03735-.1332-.04087-.2034-.00703-.1379.05714-.1768.17524-.1193.1771.0864.3459.1912.5266.2689.1398.06.294.0878.4253.1697.4165.2601.8724.3817 1.3603.3891.1486.0024.342.0325.3639-.1728.0219-.205-.1822-.2008-.3158-.228-.655-.1336-1.3095-.2611-1.9391-.5-.415-.1574-.72412-.4107-.93061-.8182.05827.0071.10129.0116.14392.0178 1.26999.1848 2.39479-.1134 3.37009-.971.5411-.4758.9994-1.0219 1.4337-1.5872.665-.8659 1.3268-1.7294 2.0985-2.5084.8289-.8363 1.903-2.0056 3.6379-2.6577.1754-.0659.3457-.1203.5134-.1698 1.0432-.2421 1.9394-.3295 2.6048-.3576 1.002-.0425 2.1289-.09 3.5094.3365.3101.0958 1.1409.3725 2.0801.9556.5682.3528.9685.7002 1.341.9994.4969.3989.9455.8418 1.3741 1.3029.4552.4894.8836 1.006 1.281 1.5469.3547.4828.6796.9927 1.1049 1.4167.7278.7254 1.5065 1.3787 2.5432 1.6374.2879.0718.5677.1437.868.1424.2034-.001.403-.0358.6054-.0342.0415.0003.0929-.0268.1214.0222.0305.0526-.0043.1037-.0336.1389z"/><path d="m30.8284 24.4853c-.0441.1219.0151.2241.0325.327.0984.5801-.1146 1.0753-.4151 1.542-.3694.5733-.947.7569-1.5878.7919-.6013.0329-1.0092-.2911-1.3348-.7536-.1875-.2663-.3457-.5471-.4333-.9126-.1621.31-.2553.5992-.333.8935-.159.6032-.2597 1.2178-.3443 1.8351-.089.649-.195 1.2962-.2648 1.9472-.0518.483-.0592.9742-.1699 1.4462-.0583.2487-.0194.4521.0626.6724.059.1588.0639.3366.0066.4885-.2812.7464-.7708 1.308-1.549 1.5469-.7011.2153-1.3219.0004-1.8506-.481-.2398-.2182-.4642-.4515-.6326-.7393-.1691-.2892-.2214-.579-.0942-.8829.1161-.2779-.0002-.5446-.0051-.8154-.0032-.1766-.0296-.3567-.0567-.5321-.0335-.2149-.0589-.4345-.0704-.6464-.0153-.2794-.0704-.5532-.0923-.8307-.0278-.3535-.0642-.71-.1207-1.0623-.1298-.8102-.2415-1.6242-.5297-2.3995-.0391-.1054-.0633-.2172-.1461-.3164-.1231.1355-.158.3072-.2274.4597-.4603 1.0106-1.7485 1.3827-2.6474.7452-.4276-.3032-.7223-.7262-.8684-1.2293-.096-.3303-.0932-.6756.0288-1.0104-.1361-.0322-.2519-.0129-.3723.0472-.4775.2379-.9132.1265-1.3133-.1852-.1842-.1435-.244-.3493-.1775-.5321.076-.2086.146-.2462.3527-.1627.1921.0777.3786.1635.5898.1848.243.0246.4685-.0062.6734-.1468.273-.1874.5291-.4007.827-.5503.7184-.3611 1.4422-.3778 2.1657-.0178.5833.2902 1.0071.7527 1.3514 1.2918.4828.7559.7524 1.5944.9079 2.4698.112.6314.2294 1.2628.289 1.9022.0473.5072.0939 1.0145.1359 1.5221.0215.2603.034.5213.0473.7821.0051.1013.0215.1559.1459.1051.7483-.3057 1.508-.2453 2.2653-.0435.1545.0413.1819.0086.1946-.1366.0692-.7931.1244-1.5884.2294-2.377.1439-1.0825.2743-2.1734.6521-3.2063.3435-.9393.8572-1.7761 1.7616-2.2798.7413-.4127 1.5109-.4092 2.2594.0077.2327.1296.4471.2931.6674.4444.3874.2662.791.3354 1.2229.1129.0395-.0204.0833-.0323.1234-.0515.1242-.0592.2525-.076.3487.035.0977.1129.1026.2448.033.386-.1983.4013-.7538.6514-1.2055.5211-.1801-.0518-.3512-.1349-.5317-.2059zm-6.9117 7.3161c-.0936.0086-.2352.0112-.3725.0368-.1682.0313-.3371.069-.4814.1715-.1922.1365-.2022.2802-.0235.4333.1138.0974.2491.1498.4003.1547.3254.0107.6508.001.9763.0246.1639.0119.3311-.0127.4764-.1069.2573-.1672.2493-.3759-.0221-.5202-.2834-.1507-.5935-.1803-.9537-.1938zm5.1271-6.5935c.3752.0011.6227-.2431.6261-.6178.0025-.298-.2832-.6116-.5741-.6036-.301.0084-.6201.2051-.6177.6121.0019.3463.2409.6083.5655.6093zm-10.4917-.5786c.0027.3283.2861.6169.603.6139.3119-.0029.582-.3111.5782-.6599-.0033-.3048-.225-.5575-.4868-.5544-.4093.0049-.6971.2539-.6944.6004z"/><path d="m19.5511 19.9287c.1049.0129.2005.0454.2906.095.4703.2595.8639.6072 1.185 1.0362.0485.0649.0858.142.1122.219.0591.1725-.0137.3594-.1566.428-.1991.0957-.4097.0581-.5041-.1185-.2161-.4033-.5561-.6742-.9298-.9141-.0968-.0622-.1881-.13-.2628-.2198-.0841-.1009-.0913-.209-.0319-.3189.0634-.1173.1569-.1997.2974-.2069z"/><path d="m27.2818 21.7607c-.3031-.0008-.4777-.2677-.3477-.553.1905-.4171.5229-.7158.8739-.9945.1445-.1146.2949-.2225.4828-.2602.1838-.037.3637.0408.4353.1916.084.1768-.0172.2888-.1387.3926-.0387.0331-.0788.0657-.1224.0915-.4045.2392-.7106.572-.9489.9738-.0941.1584-.1078.1584-.2345.158z"/><path d="m22.6844 19.3885c-.2587-.001-.4912-.2424-.4891-.508.0018-.2041.158-.3733.3453-.3737.2367-.0005.5329.2877.5304.5163-.0022.1967-.1815.3662-.3868.3654z"/><path d="m23.6494 18.1132c-.0015-.2616.1506-.4808.3371-.4861.2126-.0061.4099.2176.4089.4634-.001.2497-.1527.4523-.3398.4537-.239.0017-.4048-.1743-.4062-.431z"/><path d="m24.9512 18.9945c.0029-.2324.2292-.5312.3983-.5252.1688.0059.4032.2329.4077.3948.0061.2124-.2354.5117-.411.5094-.2157-.0027-.3975-.1772-.395-.3788z"/><path d="m24.0623 20.2709c-.1957.0029-.3889-.1375-.395-.2869-.0084-.2104.1391-.3662.3483-.3678.227-.0017.3561.114.3633.3258.0063.1846-.1298.3262-.3168.3289z"/><path d="m17.3231 30.5405c-.0213-.0086-.0426-.0172-.0639-.0259l-.0014.0034c.0213.0086.0424.0174.0638.026.0005-.0012.0009-.0024.0015-.0037z"/><path d="m37.1801 25.6299-.0053.0063.0057-.0045z"/><path d="m37.0645 25.7102c.0027-.002.0054-.0041.0082-.0061-.0043.0031-.0086.0065-.0131.0096z"/><path d="m37.0596 25.7137.0017-.0076s.0042.0033.0036.0037-.0053.0039-.0053.0039z"/><path d="m37.2178 25.5857c.0248.0076.0381-.002.0406-.0274l.0014-.0029c-.0246-.0078-.0379.0018-.0409.027l-.0011.0031z"/><path d="m17.52 30.6365-.0051.0079s-.0006-.0104-.0012-.0106c-.0006 0 .0061.0027.0061.0027z"/><path d="m37.2949 25.5098.0077-.0069-.0071.004z"/><path d="m37.258 25.5586c.0321-.0008.0481-.0141.0369-.0483l.0004-.003c-.0328.0004-.0485.0137-.0363.0483l-.0012.0032z"/><path d="m37.1804 25.6316c.0343.0027.0487-.011.0372-.0458 0 0 .001-.0031.001-.0033-.0313.0006-.0471.0141-.0385.0473z"/></g><path d="m10.9678 13.5695c.0027-.0233.0056-.0467.0084-.07.0055.0059.0164.0125.0156.0174-.0033.0192.0147.0524-.0279.0493z" fill="#ebebea"/><path d="m19.0889 36.5434c.0127-.0141.0219-.0121.025.0063.0008.0047-.0051.0105-.0078.016-.0047-.0088-.0092-.0176-.0139-.0264z" fill="#ebebea"/><path d="m23.9171 31.8013c.3602.0135.6701.043.9536.1937.2713.1444.2795.353.0221.5202-.1452.0942-.3124.1189-.4763.1069-.3256-.0236-.6509-.0138-.9763-.0246-.1512-.0049-.2865-.0573-.4003-.1547-.1789-.1531-.1689-.2966.0235-.4333.1443-.1024.3134-.1402.4814-.1715.1373-.0256.2788-.0281.3725-.0367z" fill="#ebebea"/><path d="m29.044 25.2078c-.3246-.001-.5635-.263-.5655-.6093-.0023-.4069.3166-.6036.6177-.612.2908-.0082.5767.3056.5741.6036-.0033.3747-.2508.6189-.6261.6177z" fill="#ebebea"/><path d="m18.5528 24.6291c-.0028-.3466.285-.5956.6943-.6003.2618-.0031.4838.2495.4869.5544.0037.3488-.2663.657-.5782.6599-.317.003-.6005-.2854-.603-.614z" fill="#ebebea"/></svg>